  0
SECTION
  2
BLOCKS
  0
ENDSEC
  0
SECTION
  2
ENTITIES
  0
LINE
  8
0
 10
0.314041
 20
-44.493
 11
0.627472
 21
-44.4718
  0
LINE
  8
0
 10
0.627472
 20
-44.4718
 11
0.939621
 21
-44.4366
  0
LINE
  8
0
 10
0.939621
 20
-44.4366
 11
1.24989
 21
-44.3875
  0
LINE
  8
0
 10
1.24989
 20
-44.3875
 11
1.55763
 21
-44.3245
  0
LINE
  8
0
 10
1.55763
 20
-44.3245
 11
1.86224
 21
-44.2477
  0
LINE
  8
0
 10
1.86224
 20
-44.2477
 11
2.16312
 21
-44.1574
  0
LINE
  8
0
 10
2.16312
 20
-44.1574
 11
2.45961
 21
-44.0536
  0
LINE
  8
0
 10
2.45961
 20
-44.0536
 11
2.75117
 21
-43.9367
  0
LINE
  8
0
 10
2.75117
 20
-43.9367
 11
3.03719
 21
-43.8068
  0
LINE
  8
0
 10
3.03719
 20
-43.8068
 11
3.31708
 21
-43.6642
  0
LINE
  8
0
 10
3.31708
 20
-43.6642
 11
3.59029
 21
-43.5091
  0
LINE
  8
0
 10
3.59029
 20
-43.5091
 11
3.85628
 21
-43.342
  0
LINE
  8
0
 10
3.85628
 20
-43.342
 11
4.11449
 21
-43.1631
  0
LINE
  8
0
 10
4.11449
 20
-43.1631
 11
4.36443
 21
-42.9728
  0
LINE
  8
0
 10
4.36443
 20
-42.9728
 11
4.60556
 21
-42.7715
  0
LINE
  8
0
 10
4.60556
 20
-42.7715
 11
4.83743
 21
-42.5596
  0
LINE
  8
0
 10
4.83743
 20
-42.5596
 11
5.05956
 21
-42.3374
  0
LINE
  8
0
 10
5.05956
 20
-42.3374
 11
5.2715
 21
-42.1056
  0
LINE
  8
0
 10
5.2715
 20
-42.1056
 11
5.47281
 21
-41.8644
  0
LINE
  8
0
 10
5.47281
 20
-41.8644
 11
5.66312
 21
-41.6145
  0
LINE
  8
0
 10
5.66312
 20
-41.6145
 11
5.84201
 21
-41.3563
  0
LINE
  8
0
 10
5.84201
 20
-41.3563
 11
6.00914
 21
-41.0903
  0
LINE
  8
0
 10
6.00914
 20
-41.0903
 11
6.16415
 21
-40.8171
  0
LINE
  8
0
 10
6.16415
 20
-40.8171
 11
6.30678
 21
-40.5372
  0
LINE
  8
0
 10
6.30678
 20
-40.5372
 11
6.43669
 21
-40.2512
  0
LINE
  8
0
 10
6.43669
 20
-40.2512
 11
6.55363
 21
-39.9596
  0
LINE
  8
0
 10
6.55363
 20
-39.9596
 11
6.65739
 21
-39.6631
  0
LINE
  8
0
 10
6.65739
 20
-39.6631
 11
6.74773
 21
-39.3622
  0
LINE
  8
0
 10
6.74773
 20
-39.3622
 11
6.82449
 21
-39.0576
  0
LINE
  8
0
 10
6.82449
 20
-39.0576
 11
6.8875
 21
-38.7499
  0
LINE
  8
0
 10
6.8875
 20
-38.7499
 11
6.93665
 21
-38.4396
  0
LINE
  8
0
 10
6.93665
 20
-38.4396
 11
6.97182
 21
-38.1275
  0
LINE
  8
0
 10
6.97182
 20
-38.1275
 11
6.99295
 21
-37.814
  0
LINE
  8
0
 10
6.99295
 20
-37.814
 11
7
 21
-37.5
  0
LINE
  8
0
 10
7
 20
-37.5
 11
7
 21
37.5
  0
LINE
  8
0
 10
7
 20
37.5
 11
6.99295
 21
37.814
  0
LINE
  8
0
 10
6.99295
 20
37.814
 11
6.97182
 21
38.1275
  0
LINE
  8
0
 10
6.97182
 20
38.1275
 11
6.93665
 21
38.4396
  0
LINE
  8
0
 10
6.93665
 20
38.4396
 11
6.8875
 21
38.7499
  0
LINE
  8
0
 10
6.8875
 20
38.7499
 11
6.82449
 21
39.0576
  0
LINE
  8
0
 10
6.82449
 20
39.0576
 11
6.74773
 21
39.3622
  0
LINE
  8
0
 10
6.74773
 20
39.3622
 11
6.65739
 21
39.6631
  0
LINE
  8
0
 10
6.65739
 20
39.6631
 11
6.55363
 21
39.9596
  0
LINE
  8
0
 10
6.55363
 20
39.9596
 11
6.43669
 21
40.2512
  0
LINE
  8
0
 10
6.43669
 20
40.2512
 11
6.30678
 21
40.5372
  0
LINE
  8
0
 10
6.30678
 20
40.5372
 11
6.16415
 21
40.8171
  0
LINE
  8
0
 10
6.16415
 20
40.8171
 11
6.00914
 21
41.0903
  0
LINE
  8
0
 10
6.00914
 20
41.0903
 11
5.84201
 21
41.3563
  0
LINE
  8
0
 10
5.84201
 20
41.3563
 11
5.66312
 21
41.6145
  0
LINE
  8
0
 10
5.66312
 20
41.6145
 11
5.47281
 21
41.8644
  0
LINE
  8
0
 10
5.47281
 20
41.8644
 11
5.2715
 21
42.1056
  0
LINE
  8
0
 10
5.2715
 20
42.1056
 11
5.05956
 21
42.3374
  0
LINE
  8
0
 10
5.05956
 20
42.3374
 11
4.83743
 21
42.5596
  0
LINE
  8
0
 10
4.83743
 20
42.5596
 11
4.60556
 21
42.7715
  0
LINE
  8
0
 10
4.60556
 20
42.7715
 11
4.36443
 21
42.9728
  0
LINE
  8
0
 10
4.36443
 20
42.9728
 11
4.11449
 21
43.1631
  0
LINE
  8
0
 10
4.11449
 20
43.1631
 11
3.85628
 21
43.342
  0
LINE
  8
0
 10
3.85628
 20
43.342
 11
3.59029
 21
43.5091
  0
LINE
  8
0
 10
3.59029
 20
43.5091
 11
3.31708
 21
43.6642
  0
LINE
  8
0
 10
3.31708
 20
43.6642
 11
3.03719
 21
43.8068
  0
LINE
  8
0
 10
3.03719
 20
43.8068
 11
2.75117
 21
43.9367
  0
LINE
  8
0
 10
2.75117
 20
43.9367
 11
2.45961
 21
44.0536
  0
LINE
  8
0
 10
2.45961
 20
44.0536
 11
2.16312
 21
44.1574
  0
LINE
  8
0
 10
2.16312
 20
44.1574
 11
1.86224
 21
44.2477
  0
LINE
  8
0
 10
1.86224
 20
44.2477
 11
1.55763
 21
44.3245
  0
LINE
  8
0
 10
1.55763
 20
44.3245
 11
1.24989
 21
44.3875
  0
LINE
  8
0
 10
1.24989
 20
44.3875
 11
0.939621
 21
44.4366
  0
LINE
  8
0
 10
0.939621
 20
44.4366
 11
0.627472
 21
44.4718
  0
LINE
  8
0
 10
0.627472
 20
44.4718
 11
0.314041
 21
44.493
  0
LINE
  8
0
 10
0.314041
 20
44.493
 11
0
 21
44.5
  0
LINE
  8
0
 10
0
 20
44.5
 11
-0.314041
 21
44.493
  0
LINE
  8
0
 10
-0.314041
 20
44.493
 11
-0.627472
 21
44.4718
  0
LINE
  8
0
 10
-0.627472
 20
44.4718
 11
-0.939621
 21
44.4366
  0
LINE
  8
0
 10
-0.939621
 20
44.4366
 11
-1.24989
 21
44.3875
  0
LINE
  8
0
 10
-1.24989
 20
44.3875
 11
-1.55763
 21
44.3245
  0
LINE
  8
0
 10
-1.55763
 20
44.3245
 11
-1.86224
 21
44.2477
  0
LINE
  8
0
 10
-1.86224
 20
44.2477
 11
-2.16312
 21
44.1574
  0
LINE
  8
0
 10
-2.16312
 20
44.1574
 11
-2.45961
 21
44.0536
  0
LINE
  8
0
 10
-2.45961
 20
44.0536
 11
-2.75117
 21
43.9367
  0
LINE
  8
0
 10
-2.75117
 20
43.9367
 11
-3.03719
 21
43.8068
  0
LINE
  8
0
 10
-3.03719
 20
43.8068
 11
-3.31708
 21
43.6642
  0
LINE
  8
0
 10
-3.31708
 20
43.6642
 11
-3.59029
 21
43.5091
  0
LINE
  8
0
 10
-3.59029
 20
43.5091
 11
-3.85628
 21
43.342
  0
LINE
  8
0
 10
-3.85628
 20
43.342
 11
-4.11449
 21
43.1631
  0
LINE
  8
0
 10
-4.11449
 20
43.1631
 11
-4.36443
 21
42.9728
  0
LINE
  8
0
 10
-4.36443
 20
42.9728
 11
-4.60556
 21
42.7715
  0
LINE
  8
0
 10
-4.60556
 20
42.7715
 11
-4.83743
 21
42.5596
  0
LINE
  8
0
 10
-4.83743
 20
42.5596
 11
-5.05956
 21
42.3374
  0
LINE
  8
0
 10
-5.05956
 20
42.3374
 11
-5.2715
 21
42.1056
  0
LINE
  8
0
 10
-5.2715
 20
42.1056
 11
-5.47281
 21
41.8644
  0
LINE
  8
0
 10
-5.47281
 20
41.8644
 11
-5.66312
 21
41.6145
  0
LINE
  8
0
 10
-5.66312
 20
41.6145
 11
-5.84201
 21
41.3563
  0
LINE
  8
0
 10
-5.84201
 20
41.3563
 11
-6.00914
 21
41.0903
  0
LINE
  8
0
 10
-6.00914
 20
41.0903
 11
-6.16415
 21
40.8171
  0
LINE
  8
0
 10
-6.16415
 20
40.8171
 11
-6.30678
 21
40.5372
  0
LINE
  8
0
 10
-6.30678
 20
40.5372
 11
-6.43669
 21
40.2512
  0
LINE
  8
0
 10
-6.43669
 20
40.2512
 11
-6.55363
 21
39.9596
  0
LINE
  8
0
 10
-6.55363
 20
39.9596
 11
-6.65739
 21
39.6631
  0
LINE
  8
0
 10
-6.65739
 20
39.6631
 11
-6.74773
 21
39.3622
  0
LINE
  8
0
 10
-6.74773
 20
39.3622
 11
-6.82449
 21
39.0576
  0
LINE
  8
0
 10
-6.82449
 20
39.0576
 11
-6.8875
 21
38.7499
  0
LINE
  8
0
 10
-6.8875
 20
38.7499
 11
-6.93665
 21
38.4396
  0
LINE
  8
0
 10
-6.93665
 20
38.4396
 11
-6.97182
 21
38.1275
  0
LINE
  8
0
 10
-6.97182
 20
38.1275
 11
-6.99295
 21
37.814
  0
LINE
  8
0
 10
-6.99295
 20
37.814
 11
-7
 21
37.5
  0
LINE
  8
0
 10
-7
 20
37.5
 11
-7
 21
4.47534
  0
LINE
  8
0
 10
-7
 20
4.47534
 11
-120.47
 21
4.47534
  0
LINE
  8
0
 10
-120.47
 20
4.47534
 11
-122.25
 21
3.89711
  0
LINE
  8
0
 10
-122.25
 20
3.89711
 11
-123.641
 21
2.64502
  0
LINE
  8
0
 10
-123.641
 20
2.64502
 11
-124.402
 21
0.935593
  0
LINE
  8
0
 10
-124.402
 20
0.935593
 11
-124.402
 21
-0.935593
  0
LINE
  8
0
 10
-124.402
 20
-0.935593
 11
-123.641
 21
-2.64502
  0
LINE
  8
0
 10
-123.641
 20
-2.64502
 11
-122.25
 21
-3.89711
  0
LINE
  8
0
 10
-122.25
 20
-3.89711
 11
-120.47
 21
-4.47534
  0
LINE
  8
0
 10
-120.47
 20
-4.47534
 11
-7
 21
-4.47534
  0
LINE
  8
0
 10
-7
 20
-4.47534
 11
-7
 21
-37.5
  0
LINE
  8
0
 10
-7
 20
-37.5
 11
-6.99295
 21
-37.814
  0
LINE
  8
0
 10
-6.99295
 20
-37.814
 11
-6.97182
 21
-38.1275
  0
LINE
  8
0
 10
-6.97182
 20
-38.1275
 11
-6.93665
 21
-38.4396
  0
LINE
  8
0
 10
-6.93665
 20
-38.4396
 11
-6.8875
 21
-38.7499
  0
LINE
  8
0
 10
-6.8875
 20
-38.7499
 11
-6.82449
 21
-39.0576
  0
LINE
  8
0
 10
-6.82449
 20
-39.0576
 11
-6.74773
 21
-39.3622
  0
LINE
  8
0
 10
-6.74773
 20
-39.3622
 11
-6.65739
 21
-39.6631
  0
LINE
  8
0
 10
-6.65739
 20
-39.6631
 11
-6.55363
 21
-39.9596
  0
LINE
  8
0
 10
-6.55363
 20
-39.9596
 11
-6.43669
 21
-40.2512
  0
LINE
  8
0
 10
-6.43669
 20
-40.2512
 11
-6.30678
 21
-40.5372
  0
LINE
  8
0
 10
-6.30678
 20
-40.5372
 11
-6.16415
 21
-40.8171
  0
LINE
  8
0
 10
-6.16415
 20
-40.8171
 11
-6.00914
 21
-41.0903
  0
LINE
  8
0
 10
-6.00914
 20
-41.0903
 11
-5.84201
 21
-41.3563
  0
LINE
  8
0
 10
-5.84201
 20
-41.3563
 11
-5.66312
 21
-41.6145
  0
LINE
  8
0
 10
-5.66312
 20
-41.6145
 11
-5.47281
 21
-41.8644
  0
LINE
  8
0
 10
-5.47281
 20
-41.8644
 11
-5.2715
 21
-42.1056
  0
LINE
  8
0
 10
-5.2715
 20
-42.1056
 11
-5.05956
 21
-42.3374
  0
LINE
  8
0
 10
-5.05956
 20
-42.3374
 11
-4.83743
 21
-42.5596
  0
LINE
  8
0
 10
-4.83743
 20
-42.5596
 11
-4.60556
 21
-42.7715
  0
LINE
  8
0
 10
-4.60556
 20
-42.7715
 11
-4.36443
 21
-42.9728
  0
LINE
  8
0
 10
-4.36443
 20
-42.9728
 11
-4.11449
 21
-43.1631
  0
LINE
  8
0
 10
-4.11449
 20
-43.1631
 11
-3.85628
 21
-43.342
  0
LINE
  8
0
 10
-3.85628
 20
-43.342
 11
-3.59029
 21
-43.5091
  0
LINE
  8
0
 10
-3.59029
 20
-43.5091
 11
-3.31708
 21
-43.6642
  0
LINE
  8
0
 10
-3.31708
 20
-43.6642
 11
-3.03719
 21
-43.8068
  0
LINE
  8
0
 10
-3.03719
 20
-43.8068
 11
-2.75117
 21
-43.9367
  0
LINE
  8
0
 10
-2.75117
 20
-43.9367
 11
-2.45961
 21
-44.0536
  0
LINE
  8
0
 10
-2.45961
 20
-44.0536
 11
-2.16312
 21
-44.1574
  0
LINE
  8
0
 10
-2.16312
 20
-44.1574
 11
-1.86224
 21
-44.2477
  0
LINE
  8
0
 10
-1.86224
 20
-44.2477
 11
-1.55763
 21
-44.3245
  0
LINE
  8
0
 10
-1.55763
 20
-44.3245
 11
-1.24989
 21
-44.3875
  0
LINE
  8
0
 10
-1.24989
 20
-44.3875
 11
-0.939621
 21
-44.4366
  0
LINE
  8
0
 10
-0.939621
 20
-44.4366
 11
-0.627472
 21
-44.4718
  0
LINE
  8
0
 10
-0.627472
 20
-44.4718
 11
-0.314041
 21
-44.493
  0
LINE
  8
0
 10
-0.314041
 20
-44.493
 11
0
 21
-44.5
  0
LINE
  8
0
 10
0
 20
-44.5
 11
0.314041
 21
-44.493
  0
LINE
  8
0
 10
-0.157013
 20
-40.9965
 11
-0.469803
 21
-40.9683
  0
LINE
  8
0
 10
-0.469803
 20
-40.9683
 11
-0.778809
 21
-40.9122
  0
LINE
  8
0
 10
-0.778809
 20
-40.9122
 11
-1.08156
 21
-40.8287
  0
LINE
  8
0
 10
-1.08156
 20
-40.8287
 11
-1.37558
 21
-40.7183
  0
LINE
  8
0
 10
-1.37558
 20
-40.7183
 11
-1.65854
 21
-40.5821
  0
LINE
  8
0
 10
-1.65854
 20
-40.5821
 11
-1.92813
 21
-40.421
  0
LINE
  8
0
 10
-1.92813
 20
-40.421
 11
-2.18221
 21
-40.2364
  0
LINE
  8
0
 10
-2.18221
 20
-40.2364
 11
-2.41872
 21
-40.0298
  0
LINE
  8
0
 10
-2.41872
 20
-40.0298
 11
-2.63574
 21
-39.8028
  0
LINE
  8
0
 10
-2.63574
 20
-39.8028
 11
-2.83156
 21
-39.5572
  0
LINE
  8
0
 10
-2.83156
 20
-39.5572
 11
-3.00456
 21
-39.2951
  0
LINE
  8
0
 10
-3.00456
 20
-39.2951
 11
-3.15338
 21
-39.0186
  0
LINE
  8
0
 10
-3.15338
 20
-39.0186
 11
-3.27681
 21
-38.7298
  0
LINE
  8
0
 10
-3.27681
 20
-38.7298
 11
-3.37386
 21
-38.4311
  0
LINE
  8
0
 10
-3.37386
 20
-38.4311
 11
-3.44374
 21
-38.1249
  0
LINE
  8
0
 10
-3.44374
 20
-38.1249
 11
-3.4859
 21
-37.8137
  0
LINE
  8
0
 10
-3.4859
 20
-37.8137
 11
-3.5
 21
-37.5
  0
LINE
  8
0
 10
-3.5
 20
-37.5
 11
-3.5
 21
37.5
  0
LINE
  8
0
 10
-3.5
 20
37.5
 11
-3.4859
 21
37.8137
  0
LINE
  8
0
 10
-3.4859
 20
37.8137
 11
-3.44374
 21
38.1249
  0
LINE
  8
0
 10
-3.44374
 20
38.1249
 11
-3.37386
 21
38.4311
  0
LINE
  8
0
 10
-3.37386
 20
38.4311
 11
-3.27681
 21
38.7298
  0
LINE
  8
0
 10
-3.27681
 20
38.7298
 11
-3.15338
 21
39.0186
  0
LINE
  8
0
 10
-3.15338
 20
39.0186
 11
-3.00456
 21
39.2951
  0
LINE
  8
0
 10
-3.00456
 20
39.2951
 11
-2.83156
 21
39.5572
  0
LINE
  8
0
 10
-2.83156
 20
39.5572
 11
-2.63574
 21
39.8028
  0
LINE
  8
0
 10
-2.63574
 20
39.8028
 11
-2.41872
 21
40.0298
  0
LINE
  8
0
 10
-2.41872
 20
40.0298
 11
-2.18221
 21
40.2364
  0
LINE
  8
0
 10
-2.18221
 20
40.2364
 11
-1.92813
 21
40.421
  0
LINE
  8
0
 10
-1.92813
 20
40.421
 11
-1.65854
 21
40.5821
  0
LINE
  8
0
 10
-1.65854
 20
40.5821
 11
-1.37558
 21
40.7183
  0
LINE
  8
0
 10
-1.37558
 20
40.7183
 11
-1.08156
 21
40.8287
  0
LINE
  8
0
 10
-1.08156
 20
40.8287
 11
-0.778809
 21
40.9122
  0
LINE
  8
0
 10
-0.778809
 20
40.9122
 11
-0.469803
 21
40.9683
  0
LINE
  8
0
 10
-0.469803
 20
40.9683
 11
-0.157013
 21
40.9965
  0
LINE
  8
0
 10
-0.157013
 20
40.9965
 11
0.157013
 21
40.9965
  0
LINE
  8
0
 10
0.157013
 20
40.9965
 11
0.469803
 21
40.9683
  0
LINE
  8
0
 10
0.469803
 20
40.9683
 11
0.778809
 21
40.9122
  0
LINE
  8
0
 10
0.778809
 20
40.9122
 11
1.08156
 21
40.8287
  0
LINE
  8
0
 10
1.08156
 20
40.8287
 11
1.37558
 21
40.7183
  0
LINE
  8
0
 10
1.37558
 20
40.7183
 11
1.65854
 21
40.5821
  0
LINE
  8
0
 10
1.65854
 20
40.5821
 11
1.92813
 21
40.421
  0
LINE
  8
0
 10
1.92813
 20
40.421
 11
2.18221
 21
40.2364
  0
LINE
  8
0
 10
2.18221
 20
40.2364
 11
2.41872
 21
40.0298
  0
LINE
  8
0
 10
2.41872
 20
40.0298
 11
2.63574
 21
39.8028
  0
LINE
  8
0
 10
2.63574
 20
39.8028
 11
2.83156
 21
39.5572
  0
LINE
  8
0
 10
2.83156
 20
39.5572
 11
3.00456
 21
39.2951
  0
LINE
  8
0
 10
3.00456
 20
39.2951
 11
3.15338
 21
39.0186
  0
LINE
  8
0
 10
3.15338
 20
39.0186
 11
3.27681
 21
38.7298
  0
LINE
  8
0
 10
3.27681
 20
38.7298
 11
3.37386
 21
38.4311
  0
LINE
  8
0
 10
3.37386
 20
38.4311
 11
3.44374
 21
38.1249
  0
LINE
  8
0
 10
3.44374
 20
38.1249
 11
3.4859
 21
37.8137
  0
LINE
  8
0
 10
3.4859
 20
37.8137
 11
3.5
 21
37.5
  0
LINE
  8
0
 10
3.5
 20
37.5
 11
3.5
 21
-37.5
  0
LINE
  8
0
 10
3.5
 20
-37.5
 11
3.4859
 21
-37.8137
  0
LINE
  8
0
 10
3.4859
 20
-37.8137
 11
3.44374
 21
-38.1249
  0
LINE
  8
0
 10
3.44374
 20
-38.1249
 11
3.37386
 21
-38.4311
  0
LINE
  8
0
 10
3.37386
 20
-38.4311
 11
3.27681
 21
-38.7298
  0
LINE
  8
0
 10
3.27681
 20
-38.7298
 11
3.15338
 21
-39.0186
  0
LINE
  8
0
 10
3.15338
 20
-39.0186
 11
3.00456
 21
-39.2951
  0
LINE
  8
0
 10
3.00456
 20
-39.2951
 11
2.83156
 21
-39.5572
  0
LINE
  8
0
 10
2.83156
 20
-39.5572
 11
2.63574
 21
-39.8028
  0
LINE
  8
0
 10
2.63574
 20
-39.8028
 11
2.41872
 21
-40.0298
  0
LINE
  8
0
 10
2.41872
 20
-40.0298
 11
2.18221
 21
-40.2364
  0
LINE
  8
0
 10
2.18221
 20
-40.2364
 11
1.92813
 21
-40.421
  0
LINE
  8
0
 10
1.92813
 20
-40.421
 11
1.65854
 21
-40.5821
  0
LINE
  8
0
 10
1.65854
 20
-40.5821
 11
1.37558
 21
-40.7183
  0
LINE
  8
0
 10
1.37558
 20
-40.7183
 11
1.08156
 21
-40.8287
  0
LINE
  8
0
 10
1.08156
 20
-40.8287
 11
0.778809
 21
-40.9122
  0
LINE
  8
0
 10
0.778809
 20
-40.9122
 11
0.469803
 21
-40.9683
  0
LINE
  8
0
 10
0.469803
 20
-40.9683
 11
0.157013
 21
-40.9965
  0
LINE
  8
0
 10
0.157013
 20
-40.9965
 11
-0.157013
 21
-40.9965
  0
LINE
  8
0
 10
-120.157
 20
-1.59229
 11
-120.312
 21
-1.56924
  0
LINE
  8
0
 10
-120.312
 20
-1.56924
 11
-120.464
 21
-1.5311
  0
LINE
  8
0
 10
-120.464
 20
-1.5311
 11
-120.612
 21
-1.4782
  0
LINE
  8
0
 10
-120.612
 20
-1.4782
 11
-120.754
 21
-1.41107
  0
LINE
  8
0
 10
-120.754
 20
-1.41107
 11
-120.889
 21
-1.33034
  0
LINE
  8
0
 10
-120.889
 20
-1.33034
 11
-121.015
 21
-1.23682
  0
LINE
  8
0
 10
-121.015
 20
-1.23682
 11
-121.131
 21
-1.13136
  0
LINE
  8
0
 10
-121.131
 20
-1.13136
 11
-121.237
 21
-1.01501
  0
LINE
  8
0
 10
-121.237
 20
-1.01501
 11
-121.33
 21
-0.888901
  0
LINE
  8
0
 10
-121.33
 20
-0.888901
 11
-121.411
 21
-0.754227
  0
LINE
  8
0
 10
-121.411
 20
-0.754227
 11
-121.478
 21
-0.612289
  0
LINE
  8
0
 10
-121.478
 20
-0.612289
 11
-121.531
 21
-0.464447
  0
LINE
  8
0
 10
-121.531
 20
-0.464447
 11
-121.569
 21
-0.312134
  0
LINE
  8
0
 10
-121.569
 20
-0.312134
 11
-121.592
 21
-0.156815
  0
LINE
  8
0
 10
-121.592
 20
-0.156815
 11
-121.6
 21
0
  0
LINE
  8
0
 10
-121.6
 20
0
 11
-121.592
 21
0.156815
  0
LINE
  8
0
 10
-121.592
 20
0.156815
 11
-121.569
 21
0.312134
  0
LINE
  8
0
 10
-121.569
 20
0.312134
 11
-121.531
 21
0.464447
  0
LINE
  8
0
 10
-121.531
 20
0.464447
 11
-121.478
 21
0.612289
  0
LINE
  8
0
 10
-121.478
 20
0.612289
 11
-121.411
 21
0.754227
  0
LINE
  8
0
 10
-121.411
 20
0.754227
 11
-121.33
 21
0.888901
  0
LINE
  8
0
 10
-121.33
 20
0.888901
 11
-121.237
 21
1.01501
  0
LINE
  8
0
 10
-121.237
 20
1.01501
 11
-121.131
 21
1.13136
  0
LINE
  8
0
 10
-121.131
 20
1.13136
 11
-121.015
 21
1.23682
  0
LINE
  8
0
 10
-121.015
 20
1.23682
 11
-120.889
 21
1.33034
  0
LINE
  8
0
 10
-120.889
 20
1.33034
 11
-120.754
 21
1.41107
  0
LINE
  8
0
 10
-120.754
 20
1.41107
 11
-120.612
 21
1.4782
  0
LINE
  8
0
 10
-120.612
 20
1.4782
 11
-120.464
 21
1.5311
  0
LINE
  8
0
 10
-120.464
 20
1.5311
 11
-120.312
 21
1.56924
  0
LINE
  8
0
 10
-120.312
 20
1.56924
 11
-120.157
 21
1.59229
  0
LINE
  8
0
 10
-120.157
 20
1.59229
 11
-120
 21
1.59999
  0
LINE
  8
0
 10
-120
 20
1.59999
 11
-119.843
 21
1.59229
  0
LINE
  8
0
 10
-119.843
 20
1.59229
 11
-119.688
 21
1.56924
  0
LINE
  8
0
 10
-119.688
 20
1.56924
 11
-119.536
 21
1.5311
  0
LINE
  8
0
 10
-119.536
 20
1.5311
 11
-119.388
 21
1.4782
  0
LINE
  8
0
 10
-119.388
 20
1.4782
 11
-119.246
 21
1.41107
  0
LINE
  8
0
 10
-119.246
 20
1.41107
 11
-119.111
 21
1.33034
  0
LINE
  8
0
 10
-119.111
 20
1.33034
 11
-118.985
 21
1.23682
  0
LINE
  8
0
 10
-118.985
 20
1.23682
 11
-118.869
 21
1.13136
  0
LINE
  8
0
 10
-118.869
 20
1.13136
 11
-118.763
 21
1.01501
  0
LINE
  8
0
 10
-118.763
 20
1.01501
 11
-118.67
 21
0.888901
  0
LINE
  8
0
 10
-118.67
 20
0.888901
 11
-118.589
 21
0.754227
  0
LINE
  8
0
 10
-118.589
 20
0.754227
 11
-118.522
 21
0.612289
  0
LINE
  8
0
 10
-118.522
 20
0.612289
 11
-118.469
 21
0.464447
  0
LINE
  8
0
 10
-118.469
 20
0.464447
 11
-118.431
 21
0.312134
  0
LINE
  8
0
 10
-118.431
 20
0.312134
 11
-118.408
 21
0.156815
  0
LINE
  8
0
 10
-118.408
 20
0.156815
 11
-118.4
 21
0
  0
LINE
  8
0
 10
-118.4
 20
0
 11
-118.408
 21
-0.156815
  0
LINE
  8
0
 10
-118.408
 20
-0.156815
 11
-118.431
 21
-0.312134
  0
LINE
  8
0
 10
-118.431
 20
-0.312134
 11
-118.469
 21
-0.464447
  0
LINE
  8
0
 10
-118.469
 20
-0.464447
 11
-118.522
 21
-0.612289
  0
LINE
  8
0
 10
-118.522
 20
-0.612289
 11
-118.589
 21
-0.754227
  0
LINE
  8
0
 10
-118.589
 20
-0.754227
 11
-118.67
 21
-0.888901
  0
LINE
  8
0
 10
-118.67
 20
-0.888901
 11
-118.763
 21
-1.01501
  0
LINE
  8
0
 10
-118.763
 20
-1.01501
 11
-118.869
 21
-1.13136
  0
LINE
  8
0
 10
-118.869
 20
-1.13136
 11
-118.985
 21
-1.23682
  0
LINE
  8
0
 10
-118.985
 20
-1.23682
 11
-119.111
 21
-1.33034
  0
LINE
  8
0
 10
-119.111
 20
-1.33034
 11
-119.246
 21
-1.41107
  0
LINE
  8
0
 10
-119.246
 20
-1.41107
 11
-119.388
 21
-1.4782
  0
LINE
  8
0
 10
-119.388
 20
-1.4782
 11
-119.536
 21
-1.5311
  0
LINE
  8
0
 10
-119.536
 20
-1.5311
 11
-119.688
 21
-1.56924
  0
LINE
  8
0
 10
-119.688
 20
-1.56924
 11
-119.843
 21
-1.59229
  0
LINE
  8
0
 10
-119.843
 20
-1.59229
 11
-120
 21
-1.59999
  0
LINE
  8
0
 10
-120
 20
-1.59999
 11
-120.157
 21
-1.59229
  0
LINE
  8
0
 10
-110.157
 20
-1.59229
 11
-110.312
 21
-1.56924
  0
LINE
  8
0
 10
-110.312
 20
-1.56924
 11
-110.464
 21
-1.5311
  0
LINE
  8
0
 10
-110.464
 20
-1.5311
 11
-110.612
 21
-1.4782
  0
LINE
  8
0
 10
-110.612
 20
-1.4782
 11
-110.754
 21
-1.41107
  0
LINE
  8
0
 10
-110.754
 20
-1.41107
 11
-110.889
 21
-1.33034
  0
LINE
  8
0
 10
-110.889
 20
-1.33034
 11
-111.015
 21
-1.23682
  0
LINE
  8
0
 10
-111.015
 20
-1.23682
 11
-111.131
 21
-1.13136
  0
LINE
  8
0
 10
-111.131
 20
-1.13136
 11
-111.237
 21
-1.01501
  0
LINE
  8
0
 10
-111.237
 20
-1.01501
 11
-111.33
 21
-0.888901
  0
LINE
  8
0
 10
-111.33
 20
-0.888901
 11
-111.411
 21
-0.754227
  0
LINE
  8
0
 10
-111.411
 20
-0.754227
 11
-111.478
 21
-0.612289
  0
LINE
  8
0
 10
-111.478
 20
-0.612289
 11
-111.531
 21
-0.464447
  0
LINE
  8
0
 10
-111.531
 20
-0.464447
 11
-111.569
 21
-0.312134
  0
LINE
  8
0
 10
-111.569
 20
-0.312134
 11
-111.592
 21
-0.156815
  0
LINE
  8
0
 10
-111.592
 20
-0.156815
 11
-111.6
 21
0
  0
LINE
  8
0
 10
-111.6
 20
0
 11
-111.592
 21
0.156815
  0
LINE
  8
0
 10
-111.592
 20
0.156815
 11
-111.569
 21
0.312134
  0
LINE
  8
0
 10
-111.569
 20
0.312134
 11
-111.531
 21
0.464447
  0
LINE
  8
0
 10
-111.531
 20
0.464447
 11
-111.478
 21
0.612289
  0
LINE
  8
0
 10
-111.478
 20
0.612289
 11
-111.411
 21
0.754227
  0
LINE
  8
0
 10
-111.411
 20
0.754227
 11
-111.33
 21
0.888901
  0
LINE
  8
0
 10
-111.33
 20
0.888901
 11
-111.237
 21
1.01501
  0
LINE
  8
0
 10
-111.237
 20
1.01501
 11
-111.131
 21
1.13136
  0
LINE
  8
0
 10
-111.131
 20
1.13136
 11
-111.015
 21
1.23682
  0
LINE
  8
0
 10
-111.015
 20
1.23682
 11
-110.889
 21
1.33034
  0
LINE
  8
0
 10
-110.889
 20
1.33034
 11
-110.754
 21
1.41107
  0
LINE
  8
0
 10
-110.754
 20
1.41107
 11
-110.612
 21
1.4782
  0
LINE
  8
0
 10
-110.612
 20
1.4782
 11
-110.464
 21
1.5311
  0
LINE
  8
0
 10
-110.464
 20
1.5311
 11
-110.312
 21
1.56924
  0
LINE
  8
0
 10
-110.312
 20
1.56924
 11
-110.157
 21
1.59229
  0
LINE
  8
0
 10
-110.157
 20
1.59229
 11
-110
 21
1.59999
  0
LINE
  8
0
 10
-110
 20
1.59999
 11
-109.843
 21
1.59229
  0
LINE
  8
0
 10
-109.843
 20
1.59229
 11
-109.688
 21
1.56924
  0
LINE
  8
0
 10
-109.688
 20
1.56924
 11
-109.536
 21
1.5311
  0
LINE
  8
0
 10
-109.536
 20
1.5311
 11
-109.388
 21
1.4782
  0
LINE
  8
0
 10
-109.388
 20
1.4782
 11
-109.246
 21
1.41107
  0
LINE
  8
0
 10
-109.246
 20
1.41107
 11
-109.111
 21
1.33034
  0
LINE
  8
0
 10
-109.111
 20
1.33034
 11
-108.985
 21
1.23682
  0
LINE
  8
0
 10
-108.985
 20
1.23682
 11
-108.869
 21
1.13136
  0
LINE
  8
0
 10
-108.869
 20
1.13136
 11
-108.763
 21
1.01501
  0
LINE
  8
0
 10
-108.763
 20
1.01501
 11
-108.67
 21
0.888901
  0
LINE
  8
0
 10
-108.67
 20
0.888901
 11
-108.589
 21
0.754227
  0
LINE
  8
0
 10
-108.589
 20
0.754227
 11
-108.522
 21
0.612289
  0
LINE
  8
0
 10
-108.522
 20
0.612289
 11
-108.469
 21
0.464447
  0
LINE
  8
0
 10
-108.469
 20
0.464447
 11
-108.431
 21
0.312134
  0
LINE
  8
0
 10
-108.431
 20
0.312134
 11
-108.408
 21
0.156815
  0
LINE
  8
0
 10
-108.408
 20
0.156815
 11
-108.4
 21
0
  0
LINE
  8
0
 10
-108.4
 20
0
 11
-108.408
 21
-0.156815
  0
LINE
  8
0
 10
-108.408
 20
-0.156815
 11
-108.431
 21
-0.312134
  0
LINE
  8
0
 10
-108.431
 20
-0.312134
 11
-108.469
 21
-0.464447
  0
LINE
  8
0
 10
-108.469
 20
-0.464447
 11
-108.522
 21
-0.612289
  0
LINE
  8
0
 10
-108.522
 20
-0.612289
 11
-108.589
 21
-0.754227
  0
LINE
  8
0
 10
-108.589
 20
-0.754227
 11
-108.67
 21
-0.888901
  0
LINE
  8
0
 10
-108.67
 20
-0.888901
 11
-108.763
 21
-1.01501
  0
LINE
  8
0
 10
-108.763
 20
-1.01501
 11
-108.869
 21
-1.13136
  0
LINE
  8
0
 10
-108.869
 20
-1.13136
 11
-108.985
 21
-1.23682
  0
LINE
  8
0
 10
-108.985
 20
-1.23682
 11
-109.111
 21
-1.33034
  0
LINE
  8
0
 10
-109.111
 20
-1.33034
 11
-109.246
 21
-1.41107
  0
LINE
  8
0
 10
-109.246
 20
-1.41107
 11
-109.388
 21
-1.4782
  0
LINE
  8
0
 10
-109.388
 20
-1.4782
 11
-109.536
 21
-1.5311
  0
LINE
  8
0
 10
-109.536
 20
-1.5311
 11
-109.688
 21
-1.56924
  0
LINE
  8
0
 10
-109.688
 20
-1.56924
 11
-109.843
 21
-1.59229
  0
LINE
  8
0
 10
-109.843
 20
-1.59229
 11
-110
 21
-1.59999
  0
LINE
  8
0
 10
-110
 20
-1.59999
 11
-110.157
 21
-1.59229
  0
LINE
  8
0
 10
-100.157
 20
-1.59229
 11
-100.312
 21
-1.56924
  0
LINE
  8
0
 10
-100.312
 20
-1.56924
 11
-100.464
 21
-1.5311
  0
LINE
  8
0
 10
-100.464
 20
-1.5311
 11
-100.612
 21
-1.4782
  0
LINE
  8
0
 10
-100.612
 20
-1.4782
 11
-100.754
 21
-1.41107
  0
LINE
  8
0
 10
-100.754
 20
-1.41107
 11
-100.889
 21
-1.33034
  0
LINE
  8
0
 10
-100.889
 20
-1.33034
 11
-101.015
 21
-1.23682
  0
LINE
  8
0
 10
-101.015
 20
-1.23682
 11
-101.131
 21
-1.13136
  0
LINE
  8
0
 10
-101.131
 20
-1.13136
 11
-101.237
 21
-1.01501
  0
LINE
  8
0
 10
-101.237
 20
-1.01501
 11
-101.33
 21
-0.888901
  0
LINE
  8
0
 10
-101.33
 20
-0.888901
 11
-101.411
 21
-0.754227
  0
LINE
  8
0
 10
-101.411
 20
-0.754227
 11
-101.478
 21
-0.612289
  0
LINE
  8
0
 10
-101.478
 20
-0.612289
 11
-101.531
 21
-0.464447
  0
LINE
  8
0
 10
-101.531
 20
-0.464447
 11
-101.569
 21
-0.312134
  0
LINE
  8
0
 10
-101.569
 20
-0.312134
 11
-101.592
 21
-0.156815
  0
LINE
  8
0
 10
-101.592
 20
-0.156815
 11
-101.6
 21
0
  0
LINE
  8
0
 10
-101.6
 20
0
 11
-101.592
 21
0.156815
  0
LINE
  8
0
 10
-101.592
 20
0.156815
 11
-101.569
 21
0.312134
  0
LINE
  8
0
 10
-101.569
 20
0.312134
 11
-101.531
 21
0.464447
  0
LINE
  8
0
 10
-101.531
 20
0.464447
 11
-101.478
 21
0.612289
  0
LINE
  8
0
 10
-101.478
 20
0.612289
 11
-101.411
 21
0.754227
  0
LINE
  8
0
 10
-101.411
 20
0.754227
 11
-101.33
 21
0.888901
  0
LINE
  8
0
 10
-101.33
 20
0.888901
 11
-101.237
 21
1.01501
  0
LINE
  8
0
 10
-101.237
 20
1.01501
 11
-101.131
 21
1.13136
  0
LINE
  8
0
 10
-101.131
 20
1.13136
 11
-101.015
 21
1.23682
  0
LINE
  8
0
 10
-101.015
 20
1.23682
 11
-100.889
 21
1.33034
  0
LINE
  8
0
 10
-100.889
 20
1.33034
 11
-100.754
 21
1.41107
  0
LINE
  8
0
 10
-100.754
 20
1.41107
 11
-100.612
 21
1.4782
  0
LINE
  8
0
 10
-100.612
 20
1.4782
 11
-100.464
 21
1.5311
  0
LINE
  8
0
 10
-100.464
 20
1.5311
 11
-100.312
 21
1.56924
  0
LINE
  8
0
 10
-100.312
 20
1.56924
 11
-100.157
 21
1.59229
  0
LINE
  8
0
 10
-100.157
 20
1.59229
 11
-100
 21
1.59999
  0
LINE
  8
0
 10
-100
 20
1.59999
 11
-99.8432
 21
1.59229
  0
LINE
  8
0
 10
-99.8432
 20
1.59229
 11
-99.6879
 21
1.56924
  0
LINE
  8
0
 10
-99.6879
 20
1.56924
 11
-99.5355
 21
1.5311
  0
LINE
  8
0
 10
-99.5355
 20
1.5311
 11
-99.3877
 21
1.4782
  0
LINE
  8
0
 10
-99.3877
 20
1.4782
 11
-99.2458
 21
1.41107
  0
LINE
  8
0
 10
-99.2458
 20
1.41107
 11
-99.1111
 21
1.33034
  0
LINE
  8
0
 10
-99.1111
 20
1.33034
 11
-98.985
 21
1.23682
  0
LINE
  8
0
 10
-98.985
 20
1.23682
 11
-98.8686
 21
1.13136
  0
LINE
  8
0
 10
-98.8686
 20
1.13136
 11
-98.7632
 21
1.01501
  0
LINE
  8
0
 10
-98.7632
 20
1.01501
 11
-98.6696
 21
0.888901
  0
LINE
  8
0
 10
-98.6696
 20
0.888901
 11
-98.5889
 21
0.754227
  0
LINE
  8
0
 10
-98.5889
 20
0.754227
 11
-98.5218
 21
0.612289
  0
LINE
  8
0
 10
-98.5218
 20
0.612289
 11
-98.4689
 21
0.464447
  0
LINE
  8
0
 10
-98.4689
 20
0.464447
 11
-98.4307
 21
0.312134
  0
LINE
  8
0
 10
-98.4307
 20
0.312134
 11
-98.4077
 21
0.156815
  0
LINE
  8
0
 10
-98.4077
 20
0.156815
 11
-98.4
 21
0
  0
LINE
  8
0
 10
-98.4
 20
0
 11
-98.4077
 21
-0.156815
  0
LINE
  8
0
 10
-98.4077
 20
-0.156815
 11
-98.4307
 21
-0.312134
  0
LINE
  8
0
 10
-98.4307
 20
-0.312134
 11
-98.4689
 21
-0.464447
  0
LINE
  8
0
 10
-98.4689
 20
-0.464447
 11
-98.5218
 21
-0.612289
  0
LINE
  8
0
 10
-98.5218
 20
-0.612289
 11
-98.5889
 21
-0.754227
  0
LINE
  8
0
 10
-98.5889
 20
-0.754227
 11
-98.6696
 21
-0.888901
  0
LINE
  8
0
 10
-98.6696
 20
-0.888901
 11
-98.7632
 21
-1.01501
  0
LINE
  8
0
 10
-98.7632
 20
-1.01501
 11
-98.8686
 21
-1.13136
  0
LINE
  8
0
 10
-98.8686
 20
-1.13136
 11
-98.985
 21
-1.23682
  0
LINE
  8
0
 10
-98.985
 20
-1.23682
 11
-99.1111
 21
-1.33034
  0
LINE
  8
0
 10
-99.1111
 20
-1.33034
 11
-99.2458
 21
-1.41107
  0
LINE
  8
0
 10
-99.2458
 20
-1.41107
 11
-99.3877
 21
-1.4782
  0
LINE
  8
0
 10
-99.3877
 20
-1.4782
 11
-99.5355
 21
-1.5311
  0
LINE
  8
0
 10
-99.5355
 20
-1.5311
 11
-99.6879
 21
-1.56924
  0
LINE
  8
0
 10
-99.6879
 20
-1.56924
 11
-99.8432
 21
-1.59229
  0
LINE
  8
0
 10
-99.8432
 20
-1.59229
 11
-100
 21
-1.59999
  0
LINE
  8
0
 10
-100
 20
-1.59999
 11
-100.157
 21
-1.59229
  0
LINE
  8
0
 10
-90.1568
 20
-1.59229
 11
-90.3121
 21
-1.56924
  0
LINE
  8
0
 10
-90.3121
 20
-1.56924
 11
-90.4644
 21
-1.5311
  0
LINE
  8
0
 10
-90.4644
 20
-1.5311
 11
-90.6123
 21
-1.4782
  0
LINE
  8
0
 10
-90.6123
 20
-1.4782
 11
-90.7542
 21
-1.41107
  0
LINE
  8
0
 10
-90.7542
 20
-1.41107
 11
-90.8889
 21
-1.33034
  0
LINE
  8
0
 10
-90.8889
 20
-1.33034
 11
-91.015
 21
-1.23682
  0
LINE
  8
0
 10
-91.015
 20
-1.23682
 11
-91.1314
 21
-1.13136
  0
LINE
  8
0
 10
-91.1314
 20
-1.13136
 11
-91.2368
 21
-1.01501
  0
LINE
  8
0
 10
-91.2368
 20
-1.01501
 11
-91.3303
 21
-0.888901
  0
LINE
  8
0
 10
-91.3303
 20
-0.888901
 11
-91.4111
 21
-0.754227
  0
LINE
  8
0
 10
-91.4111
 20
-0.754227
 11
-91.4782
 21
-0.612289
  0
LINE
  8
0
 10
-91.4782
 20
-0.612289
 11
-91.5311
 21
-0.464447
  0
LINE
  8
0
 10
-91.5311
 20
-0.464447
 11
-91.5692
 21
-0.312134
  0
LINE
  8
0
 10
-91.5692
 20
-0.312134
 11
-91.5923
 21
-0.156815
  0
LINE
  8
0
 10
-91.5923
 20
-0.156815
 11
-91.6
 21
0
  0
LINE
  8
0
 10
-91.6
 20
0
 11
-91.5923
 21
0.156815
  0
LINE
  8
0
 10
-91.5923
 20
0.156815
 11
-91.5692
 21
0.312134
  0
LINE
  8
0
 10
-91.5692
 20
0.312134
 11
-91.5311
 21
0.464447
  0
LINE
  8
0
 10
-91.5311
 20
0.464447
 11
-91.4782
 21
0.612289
  0
LINE
  8
0
 10
-91.4782
 20
0.612289
 11
-91.4111
 21
0.754227
  0
LINE
  8
0
 10
-91.4111
 20
0.754227
 11
-91.3303
 21
0.888901
  0
LINE
  8
0
 10
-91.3303
 20
0.888901
 11
-91.2368
 21
1.01501
  0
LINE
  8
0
 10
-91.2368
 20
1.01501
 11
-91.1314
 21
1.13136
  0
LINE
  8
0
 10
-91.1314
 20
1.13136
 11
-91.015
 21
1.23682
  0
LINE
  8
0
 10
-91.015
 20
1.23682
 11
-90.8889
 21
1.33034
  0
LINE
  8
0
 10
-90.8889
 20
1.33034
 11
-90.7542
 21
1.41107
  0
LINE
  8
0
 10
-90.7542
 20
1.41107
 11
-90.6123
 21
1.4782
  0
LINE
  8
0
 10
-90.6123
 20
1.4782
 11
-90.4644
 21
1.5311
  0
LINE
  8
0
 10
-90.4644
 20
1.5311
 11
-90.3121
 21
1.56924
  0
LINE
  8
0
 10
-90.3121
 20
1.56924
 11
-90.1568
 21
1.59229
  0
LINE
  8
0
 10
-90.1568
 20
1.59229
 11
-90
 21
1.59999
  0
LINE
  8
0
 10
-90
 20
1.59999
 11
-89.8432
 21
1.59229
  0
LINE
  8
0
 10
-89.8432
 20
1.59229
 11
-89.6879
 21
1.56924
  0
LINE
  8
0
 10
-89.6879
 20
1.56924
 11
-89.5355
 21
1.5311
  0
LINE
  8
0
 10
-89.5355
 20
1.5311
 11
-89.3877
 21
1.4782
  0
LINE
  8
0
 10
-89.3877
 20
1.4782
 11
-89.2458
 21
1.41107
  0
LINE
  8
0
 10
-89.2458
 20
1.41107
 11
-89.1111
 21
1.33034
  0
LINE
  8
0
 10
-89.1111
 20
1.33034
 11
-88.985
 21
1.23682
  0
LINE
  8
0
 10
-88.985
 20
1.23682
 11
-88.8686
 21
1.13136
  0
LINE
  8
0
 10
-88.8686
 20
1.13136
 11
-88.7632
 21
1.01501
  0
LINE
  8
0
 10
-88.7632
 20
1.01501
 11
-88.6696
 21
0.888901
  0
LINE
  8
0
 10
-88.6696
 20
0.888901
 11
-88.5889
 21
0.754227
  0
LINE
  8
0
 10
-88.5889
 20
0.754227
 11
-88.5218
 21
0.612289
  0
LINE
  8
0
 10
-88.5218
 20
0.612289
 11
-88.4689
 21
0.464447
  0
LINE
  8
0
 10
-88.4689
 20
0.464447
 11
-88.4307
 21
0.312134
  0
LINE
  8
0
 10
-88.4307
 20
0.312134
 11
-88.4077
 21
0.156815
  0
LINE
  8
0
 10
-88.4077
 20
0.156815
 11
-88.4
 21
0
  0
LINE
  8
0
 10
-88.4
 20
0
 11
-88.4077
 21
-0.156815
  0
LINE
  8
0
 10
-88.4077
 20
-0.156815
 11
-88.4307
 21
-0.312134
  0
LINE
  8
0
 10
-88.4307
 20
-0.312134
 11
-88.4689
 21
-0.464447
  0
LINE
  8
0
 10
-88.4689
 20
-0.464447
 11
-88.5218
 21
-0.612289
  0
LINE
  8
0
 10
-88.5218
 20
-0.612289
 11
-88.5889
 21
-0.754227
  0
LINE
  8
0
 10
-88.5889
 20
-0.754227
 11
-88.6696
 21
-0.888901
  0
LINE
  8
0
 10
-88.6696
 20
-0.888901
 11
-88.7632
 21
-1.01501
  0
LINE
  8
0
 10
-88.7632
 20
-1.01501
 11
-88.8686
 21
-1.13136
  0
LINE
  8
0
 10
-88.8686
 20
-1.13136
 11
-88.985
 21
-1.23682
  0
LINE
  8
0
 10
-88.985
 20
-1.23682
 11
-89.1111
 21
-1.33034
  0
LINE
  8
0
 10
-89.1111
 20
-1.33034
 11
-89.2458
 21
-1.41107
  0
LINE
  8
0
 10
-89.2458
 20
-1.41107
 11
-89.3877
 21
-1.4782
  0
LINE
  8
0
 10
-89.3877
 20
-1.4782
 11
-89.5355
 21
-1.5311
  0
LINE
  8
0
 10
-89.5355
 20
-1.5311
 11
-89.6879
 21
-1.56924
  0
LINE
  8
0
 10
-89.6879
 20
-1.56924
 11
-89.8432
 21
-1.59229
  0
LINE
  8
0
 10
-89.8432
 20
-1.59229
 11
-90
 21
-1.59999
  0
LINE
  8
0
 10
-90
 20
-1.59999
 11
-90.1568
 21
-1.59229
  0
LINE
  8
0
 10
-80.1568
 20
-1.59229
 11
-80.3121
 21
-1.56924
  0
LINE
  8
0
 10
-80.3121
 20
-1.56924
 11
-80.4644
 21
-1.5311
  0
LINE
  8
0
 10
-80.4644
 20
-1.5311
 11
-80.6123
 21
-1.4782
  0
LINE
  8
0
 10
-80.6123
 20
-1.4782
 11
-80.7542
 21
-1.41107
  0
LINE
  8
0
 10
-80.7542
 20
-1.41107
 11
-80.8889
 21
-1.33034
  0
LINE
  8
0
 10
-80.8889
 20
-1.33034
 11
-81.015
 21
-1.23682
  0
LINE
  8
0
 10
-81.015
 20
-1.23682
 11
-81.1314
 21
-1.13136
  0
LINE
  8
0
 10
-81.1314
 20
-1.13136
 11
-81.2368
 21
-1.01501
  0
LINE
  8
0
 10
-81.2368
 20
-1.01501
 11
-81.3303
 21
-0.888901
  0
LINE
  8
0
 10
-81.3303
 20
-0.888901
 11
-81.4111
 21
-0.754227
  0
LINE
  8
0
 10
-81.4111
 20
-0.754227
 11
-81.4782
 21
-0.612289
  0
LINE
  8
0
 10
-81.4782
 20
-0.612289
 11
-81.5311
 21
-0.464447
  0
LINE
  8
0
 10
-81.5311
 20
-0.464447
 11
-81.5692
 21
-0.312134
  0
LINE
  8
0
 10
-81.5692
 20
-0.312134
 11
-81.5923
 21
-0.156815
  0
LINE
  8
0
 10
-81.5923
 20
-0.156815
 11
-81.6
 21
0
  0
LINE
  8
0
 10
-81.6
 20
0
 11
-81.5923
 21
0.156815
  0
LINE
  8
0
 10
-81.5923
 20
0.156815
 11
-81.5692
 21
0.312134
  0
LINE
  8
0
 10
-81.5692
 20
0.312134
 11
-81.5311
 21
0.464447
  0
LINE
  8
0
 10
-81.5311
 20
0.464447
 11
-81.4782
 21
0.612289
  0
LINE
  8
0
 10
-81.4782
 20
0.612289
 11
-81.4111
 21
0.754227
  0
LINE
  8
0
 10
-81.4111
 20
0.754227
 11
-81.3303
 21
0.888901
  0
LINE
  8
0
 10
-81.3303
 20
0.888901
 11
-81.2368
 21
1.01501
  0
LINE
  8
0
 10
-81.2368
 20
1.01501
 11
-81.1314
 21
1.13136
  0
LINE
  8
0
 10
-81.1314
 20
1.13136
 11
-81.015
 21
1.23682
  0
LINE
  8
0
 10
-81.015
 20
1.23682
 11
-80.8889
 21
1.33034
  0
LINE
  8
0
 10
-80.8889
 20
1.33034
 11
-80.7542
 21
1.41107
  0
LINE
  8
0
 10
-80.7542
 20
1.41107
 11
-80.6123
 21
1.4782
  0
LINE
  8
0
 10
-80.6123
 20
1.4782
 11
-80.4644
 21
1.5311
  0
LINE
  8
0
 10
-80.4644
 20
1.5311
 11
-80.3121
 21
1.56924
  0
LINE
  8
0
 10
-80.3121
 20
1.56924
 11
-80.1568
 21
1.59229
  0
LINE
  8
0
 10
-80.1568
 20
1.59229
 11
-80
 21
1.59999
  0
LINE
  8
0
 10
-80
 20
1.59999
 11
-79.8432
 21
1.59229
  0
LINE
  8
0
 10
-79.8432
 20
1.59229
 11
-79.6879
 21
1.56924
  0
LINE
  8
0
 10
-79.6879
 20
1.56924
 11
-79.5355
 21
1.5311
  0
LINE
  8
0
 10
-79.5355
 20
1.5311
 11
-79.3877
 21
1.4782
  0
LINE
  8
0
 10
-79.3877
 20
1.4782
 11
-79.2458
 21
1.41107
  0
LINE
  8
0
 10
-79.2458
 20
1.41107
 11
-79.1111
 21
1.33034
  0
LINE
  8
0
 10
-79.1111
 20
1.33034
 11
-78.985
 21
1.23682
  0
LINE
  8
0
 10
-78.985
 20
1.23682
 11
-78.8686
 21
1.13136
  0
LINE
  8
0
 10
-78.8686
 20
1.13136
 11
-78.7632
 21
1.01501
  0
LINE
  8
0
 10
-78.7632
 20
1.01501
 11
-78.6696
 21
0.888901
  0
LINE
  8
0
 10
-78.6696
 20
0.888901
 11
-78.5889
 21
0.754227
  0
LINE
  8
0
 10
-78.5889
 20
0.754227
 11
-78.5218
 21
0.612289
  0
LINE
  8
0
 10
-78.5218
 20
0.612289
 11
-78.4689
 21
0.464447
  0
LINE
  8
0
 10
-78.4689
 20
0.464447
 11
-78.4307
 21
0.312134
  0
LINE
  8
0
 10
-78.4307
 20
0.312134
 11
-78.4077
 21
0.156815
  0
LINE
  8
0
 10
-78.4077
 20
0.156815
 11
-78.4
 21
0
  0
LINE
  8
0
 10
-78.4
 20
0
 11
-78.4077
 21
-0.156815
  0
LINE
  8
0
 10
-78.4077
 20
-0.156815
 11
-78.4307
 21
-0.312134
  0
LINE
  8
0
 10
-78.4307
 20
-0.312134
 11
-78.4689
 21
-0.464447
  0
LINE
  8
0
 10
-78.4689
 20
-0.464447
 11
-78.5218
 21
-0.612289
  0
LINE
  8
0
 10
-78.5218
 20
-0.612289
 11
-78.5889
 21
-0.754227
  0
LINE
  8
0
 10
-78.5889
 20
-0.754227
 11
-78.6696
 21
-0.888901
  0
LINE
  8
0
 10
-78.6696
 20
-0.888901
 11
-78.7632
 21
-1.01501
  0
LINE
  8
0
 10
-78.7632
 20
-1.01501
 11
-78.8686
 21
-1.13136
  0
LINE
  8
0
 10
-78.8686
 20
-1.13136
 11
-78.985
 21
-1.23682
  0
LINE
  8
0
 10
-78.985
 20
-1.23682
 11
-79.1111
 21
-1.33034
  0
LINE
  8
0
 10
-79.1111
 20
-1.33034
 11
-79.2458
 21
-1.41107
  0
LINE
  8
0
 10
-79.2458
 20
-1.41107
 11
-79.3877
 21
-1.4782
  0
LINE
  8
0
 10
-79.3877
 20
-1.4782
 11
-79.5355
 21
-1.5311
  0
LINE
  8
0
 10
-79.5355
 20
-1.5311
 11
-79.6879
 21
-1.56924
  0
LINE
  8
0
 10
-79.6879
 20
-1.56924
 11
-79.8432
 21
-1.59229
  0
LINE
  8
0
 10
-79.8432
 20
-1.59229
 11
-80
 21
-1.59999
  0
LINE
  8
0
 10
-80
 20
-1.59999
 11
-80.1568
 21
-1.59229
  0
LINE
  8
0
 10
-70.1568
 20
-1.59229
 11
-70.3121
 21
-1.56924
  0
LINE
  8
0
 10
-70.3121
 20
-1.56924
 11
-70.4644
 21
-1.5311
  0
LINE
  8
0
 10
-70.4644
 20
-1.5311
 11
-70.6123
 21
-1.4782
  0
LINE
  8
0
 10
-70.6123
 20
-1.4782
 11
-70.7542
 21
-1.41107
  0
LINE
  8
0
 10
-70.7542
 20
-1.41107
 11
-70.8889
 21
-1.33034
  0
LINE
  8
0
 10
-70.8889
 20
-1.33034
 11
-71.015
 21
-1.23682
  0
LINE
  8
0
 10
-71.015
 20
-1.23682
 11
-71.1314
 21
-1.13136
  0
LINE
  8
0
 10
-71.1314
 20
-1.13136
 11
-71.2368
 21
-1.01501
  0
LINE
  8
0
 10
-71.2368
 20
-1.01501
 11
-71.3303
 21
-0.888901
  0
LINE
  8
0
 10
-71.3303
 20
-0.888901
 11
-71.4111
 21
-0.754227
  0
LINE
  8
0
 10
-71.4111
 20
-0.754227
 11
-71.4782
 21
-0.612289
  0
LINE
  8
0
 10
-71.4782
 20
-0.612289
 11
-71.5311
 21
-0.464447
  0
LINE
  8
0
 10
-71.5311
 20
-0.464447
 11
-71.5692
 21
-0.312134
  0
LINE
  8
0
 10
-71.5692
 20
-0.312134
 11
-71.5923
 21
-0.156815
  0
LINE
  8
0
 10
-71.5923
 20
-0.156815
 11
-71.6
 21
0
  0
LINE
  8
0
 10
-71.6
 20
0
 11
-71.5923
 21
0.156815
  0
LINE
  8
0
 10
-71.5923
 20
0.156815
 11
-71.5692
 21
0.312134
  0
LINE
  8
0
 10
-71.5692
 20
0.312134
 11
-71.5311
 21
0.464447
  0
LINE
  8
0
 10
-71.5311
 20
0.464447
 11
-71.4782
 21
0.612289
  0
LINE
  8
0
 10
-71.4782
 20
0.612289
 11
-71.4111
 21
0.754227
  0
LINE
  8
0
 10
-71.4111
 20
0.754227
 11
-71.3303
 21
0.888901
  0
LINE
  8
0
 10
-71.3303
 20
0.888901
 11
-71.2368
 21
1.01501
  0
LINE
  8
0
 10
-71.2368
 20
1.01501
 11
-71.1314
 21
1.13136
  0
LINE
  8
0
 10
-71.1314
 20
1.13136
 11
-71.015
 21
1.23682
  0
LINE
  8
0
 10
-71.015
 20
1.23682
 11
-70.8889
 21
1.33034
  0
LINE
  8
0
 10
-70.8889
 20
1.33034
 11
-70.7542
 21
1.41107
  0
LINE
  8
0
 10
-70.7542
 20
1.41107
 11
-70.6123
 21
1.4782
  0
LINE
  8
0
 10
-70.6123
 20
1.4782
 11
-70.4644
 21
1.5311
  0
LINE
  8
0
 10
-70.4644
 20
1.5311
 11
-70.3121
 21
1.56924
  0
LINE
  8
0
 10
-70.3121
 20
1.56924
 11
-70.1568
 21
1.59229
  0
LINE
  8
0
 10
-70.1568
 20
1.59229
 11
-70
 21
1.59999
  0
LINE
  8
0
 10
-70
 20
1.59999
 11
-69.8432
 21
1.59229
  0
LINE
  8
0
 10
-69.8432
 20
1.59229
 11
-69.6879
 21
1.56924
  0
LINE
  8
0
 10
-69.6879
 20
1.56924
 11
-69.5355
 21
1.5311
  0
LINE
  8
0
 10
-69.5355
 20
1.5311
 11
-69.3877
 21
1.4782
  0
LINE
  8
0
 10
-69.3877
 20
1.4782
 11
-69.2458
 21
1.41107
  0
LINE
  8
0
 10
-69.2458
 20
1.41107
 11
-69.1111
 21
1.33034
  0
LINE
  8
0
 10
-69.1111
 20
1.33034
 11
-68.985
 21
1.23682
  0
LINE
  8
0
 10
-68.985
 20
1.23682
 11
-68.8686
 21
1.13136
  0
LINE
  8
0
 10
-68.8686
 20
1.13136
 11
-68.7632
 21
1.01501
  0
LINE
  8
0
 10
-68.7632
 20
1.01501
 11
-68.6696
 21
0.888901
  0
LINE
  8
0
 10
-68.6696
 20
0.888901
 11
-68.5889
 21
0.754227
  0
LINE
  8
0
 10
-68.5889
 20
0.754227
 11
-68.5218
 21
0.612289
  0
LINE
  8
0
 10
-68.5218
 20
0.612289
 11
-68.4689
 21
0.464447
  0
LINE
  8
0
 10
-68.4689
 20
0.464447
 11
-68.4307
 21
0.312134
  0
LINE
  8
0
 10
-68.4307
 20
0.312134
 11
-68.4077
 21
0.156815
  0
LINE
  8
0
 10
-68.4077
 20
0.156815
 11
-68.4
 21
0
  0
LINE
  8
0
 10
-68.4
 20
0
 11
-68.4077
 21
-0.156815
  0
LINE
  8
0
 10
-68.4077
 20
-0.156815
 11
-68.4307
 21
-0.312134
  0
LINE
  8
0
 10
-68.4307
 20
-0.312134
 11
-68.4689
 21
-0.464447
  0
LINE
  8
0
 10
-68.4689
 20
-0.464447
 11
-68.5218
 21
-0.612289
  0
LINE
  8
0
 10
-68.5218
 20
-0.612289
 11
-68.5889
 21
-0.754227
  0
LINE
  8
0
 10
-68.5889
 20
-0.754227
 11
-68.6696
 21
-0.888901
  0
LINE
  8
0
 10
-68.6696
 20
-0.888901
 11
-68.7632
 21
-1.01501
  0
LINE
  8
0
 10
-68.7632
 20
-1.01501
 11
-68.8686
 21
-1.13136
  0
LINE
  8
0
 10
-68.8686
 20
-1.13136
 11
-68.985
 21
-1.23682
  0
LINE
  8
0
 10
-68.985
 20
-1.23682
 11
-69.1111
 21
-1.33034
  0
LINE
  8
0
 10
-69.1111
 20
-1.33034
 11
-69.2458
 21
-1.41107
  0
LINE
  8
0
 10
-69.2458
 20
-1.41107
 11
-69.3877
 21
-1.4782
  0
LINE
  8
0
 10
-69.3877
 20
-1.4782
 11
-69.5355
 21
-1.5311
  0
LINE
  8
0
 10
-69.5355
 20
-1.5311
 11
-69.6879
 21
-1.56924
  0
LINE
  8
0
 10
-69.6879
 20
-1.56924
 11
-69.8432
 21
-1.59229
  0
LINE
  8
0
 10
-69.8432
 20
-1.59229
 11
-70
 21
-1.59999
  0
LINE
  8
0
 10
-70
 20
-1.59999
 11
-70.1568
 21
-1.59229
  0
LINE
  8
0
 10
-60.1568
 20
-1.59229
 11
-60.3121
 21
-1.56924
  0
LINE
  8
0
 10
-60.3121
 20
-1.56924
 11
-60.4644
 21
-1.5311
  0
LINE
  8
0
 10
-60.4644
 20
-1.5311
 11
-60.6123
 21
-1.4782
  0
LINE
  8
0
 10
-60.6123
 20
-1.4782
 11
-60.7542
 21
-1.41107
  0
LINE
  8
0
 10
-60.7542
 20
-1.41107
 11
-60.8889
 21
-1.33034
  0
LINE
  8
0
 10
-60.8889
 20
-1.33034
 11
-61.015
 21
-1.23682
  0
LINE
  8
0
 10
-61.015
 20
-1.23682
 11
-61.1314
 21
-1.13136
  0
LINE
  8
0
 10
-61.1314
 20
-1.13136
 11
-61.2368
 21
-1.01501
  0
LINE
  8
0
 10
-61.2368
 20
-1.01501
 11
-61.3303
 21
-0.888901
  0
LINE
  8
0
 10
-61.3303
 20
-0.888901
 11
-61.4111
 21
-0.754227
  0
LINE
  8
0
 10
-61.4111
 20
-0.754227
 11
-61.4782
 21
-0.612289
  0
LINE
  8
0
 10
-61.4782
 20
-0.612289
 11
-61.5311
 21
-0.464447
  0
LINE
  8
0
 10
-61.5311
 20
-0.464447
 11
-61.5692
 21
-0.312134
  0
LINE
  8
0
 10
-61.5692
 20
-0.312134
 11
-61.5923
 21
-0.156815
  0
LINE
  8
0
 10
-61.5923
 20
-0.156815
 11
-61.6
 21
0
  0
LINE
  8
0
 10
-61.6
 20
0
 11
-61.5923
 21
0.156815
  0
LINE
  8
0
 10
-61.5923
 20
0.156815
 11
-61.5692
 21
0.312134
  0
LINE
  8
0
 10
-61.5692
 20
0.312134
 11
-61.5311
 21
0.464447
  0
LINE
  8
0
 10
-61.5311
 20
0.464447
 11
-61.4782
 21
0.612289
  0
LINE
  8
0
 10
-61.4782
 20
0.612289
 11
-61.4111
 21
0.754227
  0
LINE
  8
0
 10
-61.4111
 20
0.754227
 11
-61.3303
 21
0.888901
  0
LINE
  8
0
 10
-61.3303
 20
0.888901
 11
-61.2368
 21
1.01501
  0
LINE
  8
0
 10
-61.2368
 20
1.01501
 11
-61.1314
 21
1.13136
  0
LINE
  8
0
 10
-61.1314
 20
1.13136
 11
-61.015
 21
1.23682
  0
LINE
  8
0
 10
-61.015
 20
1.23682
 11
-60.8889
 21
1.33034
  0
LINE
  8
0
 10
-60.8889
 20
1.33034
 11
-60.7542
 21
1.41107
  0
LINE
  8
0
 10
-60.7542
 20
1.41107
 11
-60.6123
 21
1.4782
  0
LINE
  8
0
 10
-60.6123
 20
1.4782
 11
-60.4644
 21
1.5311
  0
LINE
  8
0
 10
-60.4644
 20
1.5311
 11
-60.3121
 21
1.56924
  0
LINE
  8
0
 10
-60.3121
 20
1.56924
 11
-60.1568
 21
1.59229
  0
LINE
  8
0
 10
-60.1568
 20
1.59229
 11
-60
 21
1.59999
  0
LINE
  8
0
 10
-60
 20
1.59999
 11
-59.8432
 21
1.59229
  0
LINE
  8
0
 10
-59.8432
 20
1.59229
 11
-59.6879
 21
1.56924
  0
LINE
  8
0
 10
-59.6879
 20
1.56924
 11
-59.5355
 21
1.5311
  0
LINE
  8
0
 10
-59.5355
 20
1.5311
 11
-59.3877
 21
1.4782
  0
LINE
  8
0
 10
-59.3877
 20
1.4782
 11
-59.2458
 21
1.41107
  0
LINE
  8
0
 10
-59.2458
 20
1.41107
 11
-59.1111
 21
1.33034
  0
LINE
  8
0
 10
-59.1111
 20
1.33034
 11
-58.985
 21
1.23682
  0
LINE
  8
0
 10
-58.985
 20
1.23682
 11
-58.8686
 21
1.13136
  0
LINE
  8
0
 10
-58.8686
 20
1.13136
 11
-58.7632
 21
1.01501
  0
LINE
  8
0
 10
-58.7632
 20
1.01501
 11
-58.6696
 21
0.888901
  0
LINE
  8
0
 10
-58.6696
 20
0.888901
 11
-58.5889
 21
0.754227
  0
LINE
  8
0
 10
-58.5889
 20
0.754227
 11
-58.5218
 21
0.612289
  0
LINE
  8
0
 10
-58.5218
 20
0.612289
 11
-58.4689
 21
0.464447
  0
LINE
  8
0
 10
-58.4689
 20
0.464447
 11
-58.4307
 21
0.312134
  0
LINE
  8
0
 10
-58.4307
 20
0.312134
 11
-58.4077
 21
0.156815
  0
LINE
  8
0
 10
-58.4077
 20
0.156815
 11
-58.4
 21
0
  0
LINE
  8
0
 10
-58.4
 20
0
 11
-58.4077
 21
-0.156815
  0
LINE
  8
0
 10
-58.4077
 20
-0.156815
 11
-58.4307
 21
-0.312134
  0
LINE
  8
0
 10
-58.4307
 20
-0.312134
 11
-58.4689
 21
-0.464447
  0
LINE
  8
0
 10
-58.4689
 20
-0.464447
 11
-58.5218
 21
-0.612289
  0
LINE
  8
0
 10
-58.5218
 20
-0.612289
 11
-58.5889
 21
-0.754227
  0
LINE
  8
0
 10
-58.5889
 20
-0.754227
 11
-58.6696
 21
-0.888901
  0
LINE
  8
0
 10
-58.6696
 20
-0.888901
 11
-58.7632
 21
-1.01501
  0
LINE
  8
0
 10
-58.7632
 20
-1.01501
 11
-58.8686
 21
-1.13136
  0
LINE
  8
0
 10
-58.8686
 20
-1.13136
 11
-58.985
 21
-1.23682
  0
LINE
  8
0
 10
-58.985
 20
-1.23682
 11
-59.1111
 21
-1.33034
  0
LINE
  8
0
 10
-59.1111
 20
-1.33034
 11
-59.2458
 21
-1.41107
  0
LINE
  8
0
 10
-59.2458
 20
-1.41107
 11
-59.3877
 21
-1.4782
  0
LINE
  8
0
 10
-59.3877
 20
-1.4782
 11
-59.5355
 21
-1.5311
  0
LINE
  8
0
 10
-59.5355
 20
-1.5311
 11
-59.6879
 21
-1.56924
  0
LINE
  8
0
 10
-59.6879
 20
-1.56924
 11
-59.8432
 21
-1.59229
  0
LINE
  8
0
 10
-59.8432
 20
-1.59229
 11
-60
 21
-1.59999
  0
LINE
  8
0
 10
-60
 20
-1.59999
 11
-60.1568
 21
-1.59229
  0
LINE
  8
0
 10
-50.1568
 20
-1.59229
 11
-50.3121
 21
-1.56924
  0
LINE
  8
0
 10
-50.3121
 20
-1.56924
 11
-50.4644
 21
-1.5311
  0
LINE
  8
0
 10
-50.4644
 20
-1.5311
 11
-50.6123
 21
-1.4782
  0
LINE
  8
0
 10
-50.6123
 20
-1.4782
 11
-50.7542
 21
-1.41107
  0
LINE
  8
0
 10
-50.7542
 20
-1.41107
 11
-50.8889
 21
-1.33034
  0
LINE
  8
0
 10
-50.8889
 20
-1.33034
 11
-51.015
 21
-1.23682
  0
LINE
  8
0
 10
-51.015
 20
-1.23682
 11
-51.1314
 21
-1.13136
  0
LINE
  8
0
 10
-51.1314
 20
-1.13136
 11
-51.2368
 21
-1.01501
  0
LINE
  8
0
 10
-51.2368
 20
-1.01501
 11
-51.3303
 21
-0.888901
  0
LINE
  8
0
 10
-51.3303
 20
-0.888901
 11
-51.4111
 21
-0.754227
  0
LINE
  8
0
 10
-51.4111
 20
-0.754227
 11
-51.4782
 21
-0.612289
  0
LINE
  8
0
 10
-51.4782
 20
-0.612289
 11
-51.5311
 21
-0.464447
  0
LINE
  8
0
 10
-51.5311
 20
-0.464447
 11
-51.5692
 21
-0.312134
  0
LINE
  8
0
 10
-51.5692
 20
-0.312134
 11
-51.5923
 21
-0.156815
  0
LINE
  8
0
 10
-51.5923
 20
-0.156815
 11
-51.6
 21
0
  0
LINE
  8
0
 10
-51.6
 20
0
 11
-51.5923
 21
0.156815
  0
LINE
  8
0
 10
-51.5923
 20
0.156815
 11
-51.5692
 21
0.312134
  0
LINE
  8
0
 10
-51.5692
 20
0.312134
 11
-51.5311
 21
0.464447
  0
LINE
  8
0
 10
-51.5311
 20
0.464447
 11
-51.4782
 21
0.612289
  0
LINE
  8
0
 10
-51.4782
 20
0.612289
 11
-51.4111
 21
0.754227
  0
LINE
  8
0
 10
-51.4111
 20
0.754227
 11
-51.3303
 21
0.888901
  0
LINE
  8
0
 10
-51.3303
 20
0.888901
 11
-51.2368
 21
1.01501
  0
LINE
  8
0
 10
-51.2368
 20
1.01501
 11
-51.1314
 21
1.13136
  0
LINE
  8
0
 10
-51.1314
 20
1.13136
 11
-51.015
 21
1.23682
  0
LINE
  8
0
 10
-51.015
 20
1.23682
 11
-50.8889
 21
1.33034
  0
LINE
  8
0
 10
-50.8889
 20
1.33034
 11
-50.7542
 21
1.41107
  0
LINE
  8
0
 10
-50.7542
 20
1.41107
 11
-50.6123
 21
1.4782
  0
LINE
  8
0
 10
-50.6123
 20
1.4782
 11
-50.4644
 21
1.5311
  0
LINE
  8
0
 10
-50.4644
 20
1.5311
 11
-50.3121
 21
1.56924
  0
LINE
  8
0
 10
-50.3121
 20
1.56924
 11
-50.1568
 21
1.59229
  0
LINE
  8
0
 10
-50.1568
 20
1.59229
 11
-50
 21
1.59999
  0
LINE
  8
0
 10
-50
 20
1.59999
 11
-49.8432
 21
1.59229
  0
LINE
  8
0
 10
-49.8432
 20
1.59229
 11
-49.6879
 21
1.56924
  0
LINE
  8
0
 10
-49.6879
 20
1.56924
 11
-49.5355
 21
1.5311
  0
LINE
  8
0
 10
-49.5355
 20
1.5311
 11
-49.3877
 21
1.4782
  0
LINE
  8
0
 10
-49.3877
 20
1.4782
 11
-49.2458
 21
1.41107
  0
LINE
  8
0
 10
-49.2458
 20
1.41107
 11
-49.1111
 21
1.33034
  0
LINE
  8
0
 10
-49.1111
 20
1.33034
 11
-48.985
 21
1.23682
  0
LINE
  8
0
 10
-48.985
 20
1.23682
 11
-48.8686
 21
1.13136
  0
LINE
  8
0
 10
-48.8686
 20
1.13136
 11
-48.7632
 21
1.01501
  0
LINE
  8
0
 10
-48.7632
 20
1.01501
 11
-48.6696
 21
0.888901
  0
LINE
  8
0
 10
-48.6696
 20
0.888901
 11
-48.5889
 21
0.754227
  0
LINE
  8
0
 10
-48.5889
 20
0.754227
 11
-48.5218
 21
0.612289
  0
LINE
  8
0
 10
-48.5218
 20
0.612289
 11
-48.4689
 21
0.464447
  0
LINE
  8
0
 10
-48.4689
 20
0.464447
 11
-48.4307
 21
0.312134
  0
LINE
  8
0
 10
-48.4307
 20
0.312134
 11
-48.4077
 21
0.156815
  0
LINE
  8
0
 10
-48.4077
 20
0.156815
 11
-48.4
 21
0
  0
LINE
  8
0
 10
-48.4
 20
0
 11
-48.4077
 21
-0.156815
  0
LINE
  8
0
 10
-48.4077
 20
-0.156815
 11
-48.4307
 21
-0.312134
  0
LINE
  8
0
 10
-48.4307
 20
-0.312134
 11
-48.4689
 21
-0.464447
  0
LINE
  8
0
 10
-48.4689
 20
-0.464447
 11
-48.5218
 21
-0.612289
  0
LINE
  8
0
 10
-48.5218
 20
-0.612289
 11
-48.5889
 21
-0.754227
  0
LINE
  8
0
 10
-48.5889
 20
-0.754227
 11
-48.6696
 21
-0.888901
  0
LINE
  8
0
 10
-48.6696
 20
-0.888901
 11
-48.7632
 21
-1.01501
  0
LINE
  8
0
 10
-48.7632
 20
-1.01501
 11
-48.8686
 21
-1.13136
  0
LINE
  8
0
 10
-48.8686
 20
-1.13136
 11
-48.985
 21
-1.23682
  0
LINE
  8
0
 10
-48.985
 20
-1.23682
 11
-49.1111
 21
-1.33034
  0
LINE
  8
0
 10
-49.1111
 20
-1.33034
 11
-49.2458
 21
-1.41107
  0
LINE
  8
0
 10
-49.2458
 20
-1.41107
 11
-49.3877
 21
-1.4782
  0
LINE
  8
0
 10
-49.3877
 20
-1.4782
 11
-49.5355
 21
-1.5311
  0
LINE
  8
0
 10
-49.5355
 20
-1.5311
 11
-49.6879
 21
-1.56924
  0
LINE
  8
0
 10
-49.6879
 20
-1.56924
 11
-49.8432
 21
-1.59229
  0
LINE
  8
0
 10
-49.8432
 20
-1.59229
 11
-50
 21
-1.59999
  0
LINE
  8
0
 10
-50
 20
-1.59999
 11
-50.1568
 21
-1.59229
  0
ENDSEC
  0
SECTION
  2
OBJECTS
  0
DICTIONARY
  0
ENDSEC
  0
EOF
