  0
SECTION
  2
BLOCKS
  0
ENDSEC
  0
SECTION
  2
ENTITIES
  0
LINE
  8
0
 10
0.314041
 20
-44.493
 11
0.627472
 21
-44.4718
  0
LINE
  8
0
 10
0.627472
 20
-44.4718
 11
0.939621
 21
-44.4366
  0
LINE
  8
0
 10
0.939621
 20
-44.4366
 11
1.24989
 21
-44.3875
  0
LINE
  8
0
 10
1.24989
 20
-44.3875
 11
1.55763
 21
-44.3245
  0
LINE
  8
0
 10
1.55763
 20
-44.3245
 11
1.86224
 21
-44.2477
  0
LINE
  8
0
 10
1.86224
 20
-44.2477
 11
2.16312
 21
-44.1574
  0
LINE
  8
0
 10
2.16312
 20
-44.1574
 11
2.45961
 21
-44.0536
  0
LINE
  8
0
 10
2.45961
 20
-44.0536
 11
2.75117
 21
-43.9367
  0
LINE
  8
0
 10
2.75117
 20
-43.9367
 11
3.03719
 21
-43.8068
  0
LINE
  8
0
 10
3.03719
 20
-43.8068
 11
3.31708
 21
-43.6642
  0
LINE
  8
0
 10
3.31708
 20
-43.6642
 11
3.59029
 21
-43.5091
  0
LINE
  8
0
 10
3.59029
 20
-43.5091
 11
3.85628
 21
-43.342
  0
LINE
  8
0
 10
3.85628
 20
-43.342
 11
4.11449
 21
-43.1631
  0
LINE
  8
0
 10
4.11449
 20
-43.1631
 11
4.36443
 21
-42.9728
  0
LINE
  8
0
 10
4.36443
 20
-42.9728
 11
4.60556
 21
-42.7715
  0
LINE
  8
0
 10
4.60556
 20
-42.7715
 11
4.83743
 21
-42.5596
  0
LINE
  8
0
 10
4.83743
 20
-42.5596
 11
5.05956
 21
-42.3374
  0
LINE
  8
0
 10
5.05956
 20
-42.3374
 11
5.2715
 21
-42.1056
  0
LINE
  8
0
 10
5.2715
 20
-42.1056
 11
5.47281
 21
-41.8644
  0
LINE
  8
0
 10
5.47281
 20
-41.8644
 11
5.66312
 21
-41.6145
  0
LINE
  8
0
 10
5.66312
 20
-41.6145
 11
5.84201
 21
-41.3563
  0
LINE
  8
0
 10
5.84201
 20
-41.3563
 11
6.00914
 21
-41.0903
  0
LINE
  8
0
 10
6.00914
 20
-41.0903
 11
6.16415
 21
-40.8171
  0
LINE
  8
0
 10
6.16415
 20
-40.8171
 11
6.30678
 21
-40.5372
  0
LINE
  8
0
 10
6.30678
 20
-40.5372
 11
6.43669
 21
-40.2512
  0
LINE
  8
0
 10
6.43669
 20
-40.2512
 11
6.55363
 21
-39.9596
  0
LINE
  8
0
 10
6.55363
 20
-39.9596
 11
6.65739
 21
-39.6631
  0
LINE
  8
0
 10
6.65739
 20
-39.6631
 11
6.74773
 21
-39.3622
  0
LINE
  8
0
 10
6.74773
 20
-39.3622
 11
6.82449
 21
-39.0576
  0
LINE
  8
0
 10
6.82449
 20
-39.0576
 11
6.8875
 21
-38.7499
  0
LINE
  8
0
 10
6.8875
 20
-38.7499
 11
6.93665
 21
-38.4396
  0
LINE
  8
0
 10
6.93665
 20
-38.4396
 11
6.97182
 21
-38.1275
  0
LINE
  8
0
 10
6.97182
 20
-38.1275
 11
6.99295
 21
-37.814
  0
LINE
  8
0
 10
6.99295
 20
-37.814
 11
7
 21
-37.5
  0
LINE
  8
0
 10
7
 20
-37.5
 11
7
 21
37.5
  0
LINE
  8
0
 10
7
 20
37.5
 11
6.99295
 21
37.814
  0
LINE
  8
0
 10
6.99295
 20
37.814
 11
6.97182
 21
38.1275
  0
LINE
  8
0
 10
6.97182
 20
38.1275
 11
6.93665
 21
38.4396
  0
LINE
  8
0
 10
6.93665
 20
38.4396
 11
6.8875
 21
38.7499
  0
LINE
  8
0
 10
6.8875
 20
38.7499
 11
6.82449
 21
39.0576
  0
LINE
  8
0
 10
6.82449
 20
39.0576
 11
6.74773
 21
39.3622
  0
LINE
  8
0
 10
6.74773
 20
39.3622
 11
6.65739
 21
39.6631
  0
LINE
  8
0
 10
6.65739
 20
39.6631
 11
6.55363
 21
39.9596
  0
LINE
  8
0
 10
6.55363
 20
39.9596
 11
6.43669
 21
40.2512
  0
LINE
  8
0
 10
6.43669
 20
40.2512
 11
6.30678
 21
40.5372
  0
LINE
  8
0
 10
6.30678
 20
40.5372
 11
6.16415
 21
40.8171
  0
LINE
  8
0
 10
6.16415
 20
40.8171
 11
6.00914
 21
41.0903
  0
LINE
  8
0
 10
6.00914
 20
41.0903
 11
5.84201
 21
41.3563
  0
LINE
  8
0
 10
5.84201
 20
41.3563
 11
5.66312
 21
41.6145
  0
LINE
  8
0
 10
5.66312
 20
41.6145
 11
5.47281
 21
41.8644
  0
LINE
  8
0
 10
5.47281
 20
41.8644
 11
5.2715
 21
42.1056
  0
LINE
  8
0
 10
5.2715
 20
42.1056
 11
5.05956
 21
42.3374
  0
LINE
  8
0
 10
5.05956
 20
42.3374
 11
4.83743
 21
42.5596
  0
LINE
  8
0
 10
4.83743
 20
42.5596
 11
4.60556
 21
42.7715
  0
LINE
  8
0
 10
4.60556
 20
42.7715
 11
4.36443
 21
42.9728
  0
LINE
  8
0
 10
4.36443
 20
42.9728
 11
4.11449
 21
43.1631
  0
LINE
  8
0
 10
4.11449
 20
43.1631
 11
3.85628
 21
43.342
  0
LINE
  8
0
 10
3.85628
 20
43.342
 11
3.59029
 21
43.5091
  0
LINE
  8
0
 10
3.59029
 20
43.5091
 11
3.31708
 21
43.6642
  0
LINE
  8
0
 10
3.31708
 20
43.6642
 11
3.03719
 21
43.8068
  0
LINE
  8
0
 10
3.03719
 20
43.8068
 11
2.75117
 21
43.9367
  0
LINE
  8
0
 10
2.75117
 20
43.9367
 11
2.45961
 21
44.0536
  0
LINE
  8
0
 10
2.45961
 20
44.0536
 11
2.16312
 21
44.1574
  0
LINE
  8
0
 10
2.16312
 20
44.1574
 11
1.86224
 21
44.2477
  0
LINE
  8
0
 10
1.86224
 20
44.2477
 11
1.55763
 21
44.3245
  0
LINE
  8
0
 10
1.55763
 20
44.3245
 11
1.24989
 21
44.3875
  0
LINE
  8
0
 10
1.24989
 20
44.3875
 11
0.939621
 21
44.4366
  0
LINE
  8
0
 10
0.939621
 20
44.4366
 11
0.627472
 21
44.4718
  0
LINE
  8
0
 10
0.627472
 20
44.4718
 11
0.314041
 21
44.493
  0
LINE
  8
0
 10
0.314041
 20
44.493
 11
0
 21
44.5
  0
LINE
  8
0
 10
0
 20
44.5
 11
-0.314041
 21
44.493
  0
LINE
  8
0
 10
-0.314041
 20
44.493
 11
-0.627472
 21
44.4718
  0
LINE
  8
0
 10
-0.627472
 20
44.4718
 11
-0.939621
 21
44.4366
  0
LINE
  8
0
 10
-0.939621
 20
44.4366
 11
-1.24989
 21
44.3875
  0
LINE
  8
0
 10
-1.24989
 20
44.3875
 11
-1.55763
 21
44.3245
  0
LINE
  8
0
 10
-1.55763
 20
44.3245
 11
-1.86224
 21
44.2477
  0
LINE
  8
0
 10
-1.86224
 20
44.2477
 11
-2.16312
 21
44.1574
  0
LINE
  8
0
 10
-2.16312
 20
44.1574
 11
-2.45961
 21
44.0536
  0
LINE
  8
0
 10
-2.45961
 20
44.0536
 11
-2.75117
 21
43.9367
  0
LINE
  8
0
 10
-2.75117
 20
43.9367
 11
-3.03719
 21
43.8068
  0
LINE
  8
0
 10
-3.03719
 20
43.8068
 11
-3.31708
 21
43.6642
  0
LINE
  8
0
 10
-3.31708
 20
43.6642
 11
-3.59029
 21
43.5091
  0
LINE
  8
0
 10
-3.59029
 20
43.5091
 11
-3.85628
 21
43.342
  0
LINE
  8
0
 10
-3.85628
 20
43.342
 11
-4.11449
 21
43.1631
  0
LINE
  8
0
 10
-4.11449
 20
43.1631
 11
-4.36443
 21
42.9728
  0
LINE
  8
0
 10
-4.36443
 20
42.9728
 11
-4.60556
 21
42.7715
  0
LINE
  8
0
 10
-4.60556
 20
42.7715
 11
-4.83743
 21
42.5596
  0
LINE
  8
0
 10
-4.83743
 20
42.5596
 11
-5.05956
 21
42.3374
  0
LINE
  8
0
 10
-5.05956
 20
42.3374
 11
-5.2715
 21
42.1056
  0
LINE
  8
0
 10
-5.2715
 20
42.1056
 11
-5.47281
 21
41.8644
  0
LINE
  8
0
 10
-5.47281
 20
41.8644
 11
-5.66312
 21
41.6145
  0
LINE
  8
0
 10
-5.66312
 20
41.6145
 11
-5.84201
 21
41.3563
  0
LINE
  8
0
 10
-5.84201
 20
41.3563
 11
-6.00914
 21
41.0903
  0
LINE
  8
0
 10
-6.00914
 20
41.0903
 11
-6.16415
 21
40.8171
  0
LINE
  8
0
 10
-6.16415
 20
40.8171
 11
-6.30678
 21
40.5372
  0
LINE
  8
0
 10
-6.30678
 20
40.5372
 11
-6.43669
 21
40.2512
  0
LINE
  8
0
 10
-6.43669
 20
40.2512
 11
-6.55363
 21
39.9596
  0
LINE
  8
0
 10
-6.55363
 20
39.9596
 11
-6.65739
 21
39.6631
  0
LINE
  8
0
 10
-6.65739
 20
39.6631
 11
-6.74773
 21
39.3622
  0
LINE
  8
0
 10
-6.74773
 20
39.3622
 11
-6.82449
 21
39.0576
  0
LINE
  8
0
 10
-6.82449
 20
39.0576
 11
-6.8875
 21
38.7499
  0
LINE
  8
0
 10
-6.8875
 20
38.7499
 11
-6.93665
 21
38.4396
  0
LINE
  8
0
 10
-6.93665
 20
38.4396
 11
-6.97182
 21
38.1275
  0
LINE
  8
0
 10
-6.97182
 20
38.1275
 11
-6.99295
 21
37.814
  0
LINE
  8
0
 10
-6.99295
 20
37.814
 11
-7
 21
37.5
  0
LINE
  8
0
 10
-7
 20
37.5
 11
-7
 21
4.47534
  0
LINE
  8
0
 10
-7
 20
4.47534
 11
-120.47
 21
4.47534
  0
LINE
  8
0
 10
-120.47
 20
4.47534
 11
-122.25
 21
3.89711
  0
LINE
  8
0
 10
-122.25
 20
3.89711
 11
-123.641
 21
2.64502
  0
LINE
  8
0
 10
-123.641
 20
2.64502
 11
-124.402
 21
0.935593
  0
LINE
  8
0
 10
-124.402
 20
0.935593
 11
-124.402
 21
-0.935593
  0
LINE
  8
0
 10
-124.402
 20
-0.935593
 11
-123.641
 21
-2.64502
  0
LINE
  8
0
 10
-123.641
 20
-2.64502
 11
-122.25
 21
-3.89711
  0
LINE
  8
0
 10
-122.25
 20
-3.89711
 11
-120.47
 21
-4.47534
  0
LINE
  8
0
 10
-120.47
 20
-4.47534
 11
-7
 21
-4.47534
  0
LINE
  8
0
 10
-7
 20
-4.47534
 11
-7
 21
-37.5
  0
LINE
  8
0
 10
-7
 20
-37.5
 11
-6.99295
 21
-37.814
  0
LINE
  8
0
 10
-6.99295
 20
-37.814
 11
-6.97182
 21
-38.1275
  0
LINE
  8
0
 10
-6.97182
 20
-38.1275
 11
-6.93665
 21
-38.4396
  0
LINE
  8
0
 10
-6.93665
 20
-38.4396
 11
-6.8875
 21
-38.7499
  0
LINE
  8
0
 10
-6.8875
 20
-38.7499
 11
-6.82449
 21
-39.0576
  0
LINE
  8
0
 10
-6.82449
 20
-39.0576
 11
-6.74773
 21
-39.3622
  0
LINE
  8
0
 10
-6.74773
 20
-39.3622
 11
-6.65739
 21
-39.6631
  0
LINE
  8
0
 10
-6.65739
 20
-39.6631
 11
-6.55363
 21
-39.9596
  0
LINE
  8
0
 10
-6.55363
 20
-39.9596
 11
-6.43669
 21
-40.2512
  0
LINE
  8
0
 10
-6.43669
 20
-40.2512
 11
-6.30678
 21
-40.5372
  0
LINE
  8
0
 10
-6.30678
 20
-40.5372
 11
-6.16415
 21
-40.8171
  0
LINE
  8
0
 10
-6.16415
 20
-40.8171
 11
-6.00914
 21
-41.0903
  0
LINE
  8
0
 10
-6.00914
 20
-41.0903
 11
-5.84201
 21
-41.3563
  0
LINE
  8
0
 10
-5.84201
 20
-41.3563
 11
-5.66312
 21
-41.6145
  0
LINE
  8
0
 10
-5.66312
 20
-41.6145
 11
-5.47281
 21
-41.8644
  0
LINE
  8
0
 10
-5.47281
 20
-41.8644
 11
-5.2715
 21
-42.1056
  0
LINE
  8
0
 10
-5.2715
 20
-42.1056
 11
-5.05956
 21
-42.3374
  0
LINE
  8
0
 10
-5.05956
 20
-42.3374
 11
-4.83743
 21
-42.5596
  0
LINE
  8
0
 10
-4.83743
 20
-42.5596
 11
-4.60556
 21
-42.7715
  0
LINE
  8
0
 10
-4.60556
 20
-42.7715
 11
-4.36443
 21
-42.9728
  0
LINE
  8
0
 10
-4.36443
 20
-42.9728
 11
-4.11449
 21
-43.1631
  0
LINE
  8
0
 10
-4.11449
 20
-43.1631
 11
-3.85628
 21
-43.342
  0
LINE
  8
0
 10
-3.85628
 20
-43.342
 11
-3.59029
 21
-43.5091
  0
LINE
  8
0
 10
-3.59029
 20
-43.5091
 11
-3.31708
 21
-43.6642
  0
LINE
  8
0
 10
-3.31708
 20
-43.6642
 11
-3.03719
 21
-43.8068
  0
LINE
  8
0
 10
-3.03719
 20
-43.8068
 11
-2.75117
 21
-43.9367
  0
LINE
  8
0
 10
-2.75117
 20
-43.9367
 11
-2.45961
 21
-44.0536
  0
LINE
  8
0
 10
-2.45961
 20
-44.0536
 11
-2.16312
 21
-44.1574
  0
LINE
  8
0
 10
-2.16312
 20
-44.1574
 11
-1.86224
 21
-44.2477
  0
LINE
  8
0
 10
-1.86224
 20
-44.2477
 11
-1.55763
 21
-44.3245
  0
LINE
  8
0
 10
-1.55763
 20
-44.3245
 11
-1.24989
 21
-44.3875
  0
LINE
  8
0
 10
-1.24989
 20
-44.3875
 11
-0.939621
 21
-44.4366
  0
LINE
  8
0
 10
-0.939621
 20
-44.4366
 11
-0.627472
 21
-44.4718
  0
LINE
  8
0
 10
-0.627472
 20
-44.4718
 11
-0.314041
 21
-44.493
  0
LINE
  8
0
 10
-0.314041
 20
-44.493
 11
0
 21
-44.5
  0
LINE
  8
0
 10
0
 20
-44.5
 11
0.314041
 21
-44.493
  0
LINE
  8
0
 10
-0.157013
 20
-40.9965
 11
-0.469803
 21
-40.9683
  0
LINE
  8
0
 10
-0.469803
 20
-40.9683
 11
-0.778809
 21
-40.9122
  0
LINE
  8
0
 10
-0.778809
 20
-40.9122
 11
-1.08156
 21
-40.8287
  0
LINE
  8
0
 10
-1.08156
 20
-40.8287
 11
-1.37558
 21
-40.7183
  0
LINE
  8
0
 10
-1.37558
 20
-40.7183
 11
-1.65854
 21
-40.5821
  0
LINE
  8
0
 10
-1.65854
 20
-40.5821
 11
-1.92813
 21
-40.421
  0
LINE
  8
0
 10
-1.92813
 20
-40.421
 11
-2.18221
 21
-40.2364
  0
LINE
  8
0
 10
-2.18221
 20
-40.2364
 11
-2.41872
 21
-40.0298
  0
LINE
  8
0
 10
-2.41872
 20
-40.0298
 11
-2.63574
 21
-39.8028
  0
LINE
  8
0
 10
-2.63574
 20
-39.8028
 11
-2.83156
 21
-39.5572
  0
LINE
  8
0
 10
-2.83156
 20
-39.5572
 11
-3.00456
 21
-39.2951
  0
LINE
  8
0
 10
-3.00456
 20
-39.2951
 11
-3.15338
 21
-39.0186
  0
LINE
  8
0
 10
-3.15338
 20
-39.0186
 11
-3.27681
 21
-38.7298
  0
LINE
  8
0
 10
-3.27681
 20
-38.7298
 11
-3.37386
 21
-38.4311
  0
LINE
  8
0
 10
-3.37386
 20
-38.4311
 11
-3.44374
 21
-38.1249
  0
LINE
  8
0
 10
-3.44374
 20
-38.1249
 11
-3.4859
 21
-37.8137
  0
LINE
  8
0
 10
-3.4859
 20
-37.8137
 11
-3.5
 21
-37.5
  0
LINE
  8
0
 10
-3.5
 20
-37.5
 11
-3.5
 21
37.5
  0
LINE
  8
0
 10
-3.5
 20
37.5
 11
-3.4859
 21
37.8137
  0
LINE
  8
0
 10
-3.4859
 20
37.8137
 11
-3.44374
 21
38.1249
  0
LINE
  8
0
 10
-3.44374
 20
38.1249
 11
-3.37386
 21
38.4311
  0
LINE
  8
0
 10
-3.37386
 20
38.4311
 11
-3.27681
 21
38.7298
  0
LINE
  8
0
 10
-3.27681
 20
38.7298
 11
-3.15338
 21
39.0186
  0
LINE
  8
0
 10
-3.15338
 20
39.0186
 11
-3.00456
 21
39.2951
  0
LINE
  8
0
 10
-3.00456
 20
39.2951
 11
-2.83156
 21
39.5572
  0
LINE
  8
0
 10
-2.83156
 20
39.5572
 11
-2.63574
 21
39.8028
  0
LINE
  8
0
 10
-2.63574
 20
39.8028
 11
-2.41872
 21
40.0298
  0
LINE
  8
0
 10
-2.41872
 20
40.0298
 11
-2.18221
 21
40.2364
  0
LINE
  8
0
 10
-2.18221
 20
40.2364
 11
-1.92813
 21
40.421
  0
LINE
  8
0
 10
-1.92813
 20
40.421
 11
-1.65854
 21
40.5821
  0
LINE
  8
0
 10
-1.65854
 20
40.5821
 11
-1.37558
 21
40.7183
  0
LINE
  8
0
 10
-1.37558
 20
40.7183
 11
-1.08156
 21
40.8287
  0
LINE
  8
0
 10
-1.08156
 20
40.8287
 11
-0.778809
 21
40.9122
  0
LINE
  8
0
 10
-0.778809
 20
40.9122
 11
-0.469803
 21
40.9683
  0
LINE
  8
0
 10
-0.469803
 20
40.9683
 11
-0.157013
 21
40.9965
  0
LINE
  8
0
 10
-0.157013
 20
40.9965
 11
0.157013
 21
40.9965
  0
LINE
  8
0
 10
0.157013
 20
40.9965
 11
0.469803
 21
40.9683
  0
LINE
  8
0
 10
0.469803
 20
40.9683
 11
0.778809
 21
40.9122
  0
LINE
  8
0
 10
0.778809
 20
40.9122
 11
1.08156
 21
40.8287
  0
LINE
  8
0
 10
1.08156
 20
40.8287
 11
1.37558
 21
40.7183
  0
LINE
  8
0
 10
1.37558
 20
40.7183
 11
1.65854
 21
40.5821
  0
LINE
  8
0
 10
1.65854
 20
40.5821
 11
1.92813
 21
40.421
  0
LINE
  8
0
 10
1.92813
 20
40.421
 11
2.18221
 21
40.2364
  0
LINE
  8
0
 10
2.18221
 20
40.2364
 11
2.41872
 21
40.0298
  0
LINE
  8
0
 10
2.41872
 20
40.0298
 11
2.63574
 21
39.8028
  0
LINE
  8
0
 10
2.63574
 20
39.8028
 11
2.83156
 21
39.5572
  0
LINE
  8
0
 10
2.83156
 20
39.5572
 11
3.00456
 21
39.2951
  0
LINE
  8
0
 10
3.00456
 20
39.2951
 11
3.15338
 21
39.0186
  0
LINE
  8
0
 10
3.15338
 20
39.0186
 11
3.27681
 21
38.7298
  0
LINE
  8
0
 10
3.27681
 20
38.7298
 11
3.37386
 21
38.4311
  0
LINE
  8
0
 10
3.37386
 20
38.4311
 11
3.44374
 21
38.1249
  0
LINE
  8
0
 10
3.44374
 20
38.1249
 11
3.4859
 21
37.8137
  0
LINE
  8
0
 10
3.4859
 20
37.8137
 11
3.5
 21
37.5
  0
LINE
  8
0
 10
3.5
 20
37.5
 11
3.5
 21
-37.5
  0
LINE
  8
0
 10
3.5
 20
-37.5
 11
3.4859
 21
-37.8137
  0
LINE
  8
0
 10
3.4859
 20
-37.8137
 11
3.44374
 21
-38.1249
  0
LINE
  8
0
 10
3.44374
 20
-38.1249
 11
3.37386
 21
-38.4311
  0
LINE
  8
0
 10
3.37386
 20
-38.4311
 11
3.27681
 21
-38.7298
  0
LINE
  8
0
 10
3.27681
 20
-38.7298
 11
3.15338
 21
-39.0186
  0
LINE
  8
0
 10
3.15338
 20
-39.0186
 11
3.00456
 21
-39.2951
  0
LINE
  8
0
 10
3.00456
 20
-39.2951
 11
2.83156
 21
-39.5572
  0
LINE
  8
0
 10
2.83156
 20
-39.5572
 11
2.63574
 21
-39.8028
  0
LINE
  8
0
 10
2.63574
 20
-39.8028
 11
2.41872
 21
-40.0298
  0
LINE
  8
0
 10
2.41872
 20
-40.0298
 11
2.18221
 21
-40.2364
  0
LINE
  8
0
 10
2.18221
 20
-40.2364
 11
1.92813
 21
-40.421
  0
LINE
  8
0
 10
1.92813
 20
-40.421
 11
1.65854
 21
-40.5821
  0
LINE
  8
0
 10
1.65854
 20
-40.5821
 11
1.37558
 21
-40.7183
  0
LINE
  8
0
 10
1.37558
 20
-40.7183
 11
1.08156
 21
-40.8287
  0
LINE
  8
0
 10
1.08156
 20
-40.8287
 11
0.778809
 21
-40.9122
  0
LINE
  8
0
 10
0.778809
 20
-40.9122
 11
0.469803
 21
-40.9683
  0
LINE
  8
0
 10
0.469803
 20
-40.9683
 11
0.157013
 21
-40.9965
  0
LINE
  8
0
 10
0.157013
 20
-40.9965
 11
-0.157013
 21
-40.9965
  0
LINE
  8
0
 10
-110
 20
-1.59999
 11
-110.157
 21
-1.59229
  0
LINE
  8
0
 10
-110.157
 20
-1.59229
 11
-110.312
 21
-1.56924
  0
LINE
  8
0
 10
-110.312
 20
-1.56924
 11
-110.464
 21
-1.5311
  0
LINE
  8
0
 10
-110.464
 20
-1.5311
 11
-110.612
 21
-1.4782
  0
LINE
  8
0
 10
-110.612
 20
-1.4782
 11
-110.754
 21
-1.41107
  0
LINE
  8
0
 10
-110.754
 20
-1.41107
 11
-110.889
 21
-1.33034
  0
LINE
  8
0
 10
-110.889
 20
-1.33034
 11
-111.015
 21
-1.23682
  0
LINE
  8
0
 10
-111.015
 20
-1.23682
 11
-111.131
 21
-1.13136
  0
LINE
  8
0
 10
-111.131
 20
-1.13136
 11
-111.237
 21
-1.01501
  0
LINE
  8
0
 10
-111.237
 20
-1.01501
 11
-111.33
 21
-0.888901
  0
LINE
  8
0
 10
-111.33
 20
-0.888901
 11
-111.411
 21
-0.754227
  0
LINE
  8
0
 10
-111.411
 20
-0.754227
 11
-111.478
 21
-0.612289
  0
LINE
  8
0
 10
-111.478
 20
-0.612289
 11
-111.531
 21
-0.464447
  0
LINE
  8
0
 10
-111.531
 20
-0.464447
 11
-111.569
 21
-0.312134
  0
LINE
  8
0
 10
-111.569
 20
-0.312134
 11
-111.592
 21
-0.156815
  0
LINE
  8
0
 10
-111.592
 20
-0.156815
 11
-111.6
 21
0
  0
LINE
  8
0
 10
-111.6
 20
0
 11
-111.592
 21
0.156815
  0
LINE
  8
0
 10
-111.592
 20
0.156815
 11
-111.569
 21
0.312134
  0
LINE
  8
0
 10
-111.569
 20
0.312134
 11
-111.531
 21
0.464447
  0
LINE
  8
0
 10
-111.531
 20
0.464447
 11
-111.478
 21
0.612289
  0
LINE
  8
0
 10
-111.478
 20
0.612289
 11
-111.411
 21
0.754227
  0
LINE
  8
0
 10
-111.411
 20
0.754227
 11
-111.33
 21
0.888901
  0
LINE
  8
0
 10
-111.33
 20
0.888901
 11
-111.237
 21
1.01501
  0
LINE
  8
0
 10
-111.237
 20
1.01501
 11
-111.131
 21
1.13136
  0
LINE
  8
0
 10
-111.131
 20
1.13136
 11
-111.015
 21
1.23682
  0
LINE
  8
0
 10
-111.015
 20
1.23682
 11
-110.889
 21
1.33034
  0
LINE
  8
0
 10
-110.889
 20
1.33034
 11
-110.754
 21
1.41107
  0
LINE
  8
0
 10
-110.754
 20
1.41107
 11
-110.612
 21
1.4782
  0
LINE
  8
0
 10
-110.612
 20
1.4782
 11
-110.464
 21
1.5311
  0
LINE
  8
0
 10
-110.464
 20
1.5311
 11
-110.312
 21
1.56924
  0
LINE
  8
0
 10
-110.312
 20
1.56924
 11
-110.157
 21
1.59229
  0
LINE
  8
0
 10
-110.157
 20
1.59229
 11
-110
 21
1.59999
  0
LINE
  8
0
 10
-110
 20
1.59999
 11
-50
 21
1.59999
  0
LINE
  8
0
 10
-50
 20
1.59999
 11
-49.8432
 21
1.59229
  0
LINE
  8
0
 10
-49.8432
 20
1.59229
 11
-49.6879
 21
1.56924
  0
LINE
  8
0
 10
-49.6879
 20
1.56924
 11
-49.5355
 21
1.5311
  0
LINE
  8
0
 10
-49.5355
 20
1.5311
 11
-49.3877
 21
1.4782
  0
LINE
  8
0
 10
-49.3877
 20
1.4782
 11
-49.2458
 21
1.41107
  0
LINE
  8
0
 10
-49.2458
 20
1.41107
 11
-49.1111
 21
1.33034
  0
LINE
  8
0
 10
-49.1111
 20
1.33034
 11
-48.985
 21
1.23682
  0
LINE
  8
0
 10
-48.985
 20
1.23682
 11
-48.8686
 21
1.13136
  0
LINE
  8
0
 10
-48.8686
 20
1.13136
 11
-48.7632
 21
1.01501
  0
LINE
  8
0
 10
-48.7632
 20
1.01501
 11
-48.6696
 21
0.888901
  0
LINE
  8
0
 10
-48.6696
 20
0.888901
 11
-48.5889
 21
0.754227
  0
LINE
  8
0
 10
-48.5889
 20
0.754227
 11
-48.5218
 21
0.612289
  0
LINE
  8
0
 10
-48.5218
 20
0.612289
 11
-48.4689
 21
0.464447
  0
LINE
  8
0
 10
-48.4689
 20
0.464447
 11
-48.4307
 21
0.312134
  0
LINE
  8
0
 10
-48.4307
 20
0.312134
 11
-48.4077
 21
0.156815
  0
LINE
  8
0
 10
-48.4077
 20
0.156815
 11
-48.4
 21
0
  0
LINE
  8
0
 10
-48.4
 20
0
 11
-48.4077
 21
-0.156815
  0
LINE
  8
0
 10
-48.4077
 20
-0.156815
 11
-48.4307
 21
-0.312134
  0
LINE
  8
0
 10
-48.4307
 20
-0.312134
 11
-48.4689
 21
-0.464447
  0
LINE
  8
0
 10
-48.4689
 20
-0.464447
 11
-48.5218
 21
-0.612289
  0
LINE
  8
0
 10
-48.5218
 20
-0.612289
 11
-48.5889
 21
-0.754227
  0
LINE
  8
0
 10
-48.5889
 20
-0.754227
 11
-48.6696
 21
-0.888901
  0
LINE
  8
0
 10
-48.6696
 20
-0.888901
 11
-48.7632
 21
-1.01501
  0
LINE
  8
0
 10
-48.7632
 20
-1.01501
 11
-48.8686
 21
-1.13136
  0
LINE
  8
0
 10
-48.8686
 20
-1.13136
 11
-48.985
 21
-1.23682
  0
LINE
  8
0
 10
-48.985
 20
-1.23682
 11
-49.1111
 21
-1.33034
  0
LINE
  8
0
 10
-49.1111
 20
-1.33034
 11
-49.2458
 21
-1.41107
  0
LINE
  8
0
 10
-49.2458
 20
-1.41107
 11
-49.3877
 21
-1.4782
  0
LINE
  8
0
 10
-49.3877
 20
-1.4782
 11
-49.5355
 21
-1.5311
  0
LINE
  8
0
 10
-49.5355
 20
-1.5311
 11
-49.6879
 21
-1.56924
  0
LINE
  8
0
 10
-49.6879
 20
-1.56924
 11
-49.8432
 21
-1.59229
  0
LINE
  8
0
 10
-49.8432
 20
-1.59229
 11
-50
 21
-1.59999
  0
LINE
  8
0
 10
-50
 20
-1.59999
 11
-110
 21
-1.59999
  0
ENDSEC
  0
SECTION
  2
OBJECTS
  0
DICTIONARY
  0
ENDSEC
  0
EOF
