  0
SECTION
  2
BLOCKS
  0
ENDSEC
  0
SECTION
  2
ENTITIES
  0
LINE
  8
0
 10
0.470993
 20
-45.9869
 11
0.784271
 21
-45.9637
  0
LINE
  8
0
 10
0.784271
 20
-45.9637
 11
1.09648
 21
-45.929
  0
LINE
  8
0
 10
1.09648
 20
-45.929
 11
1.4072
 21
-45.8827
  0
LINE
  8
0
 10
1.4072
 20
-45.8827
 11
1.71599
 21
-45.825
  0
LINE
  8
0
 10
1.71599
 20
-45.825
 11
2.02245
 21
-45.7559
  0
LINE
  8
0
 10
2.02245
 20
-45.7559
 11
2.32613
 21
-45.6755
  0
LINE
  8
0
 10
2.32613
 20
-45.6755
 11
2.62663
 21
-45.584
  0
LINE
  8
0
 10
2.62663
 20
-45.584
 11
2.92355
 21
-45.4814
  0
LINE
  8
0
 10
2.92355
 20
-45.4814
 11
3.21649
 21
-45.3679
  0
LINE
  8
0
 10
3.21649
 20
-45.3679
 11
3.50502
 21
-45.2437
  0
LINE
  8
0
 10
3.50502
 20
-45.2437
 11
3.78877
 21
-45.1089
  0
LINE
  8
0
 10
3.78877
 20
-45.1089
 11
4.06734
 21
-44.9637
  0
LINE
  8
0
 10
4.06734
 20
-44.9637
 11
4.34036
 21
-44.8083
  0
LINE
  8
0
 10
4.34036
 20
-44.8083
 11
4.60745
 21
-44.6429
  0
LINE
  8
0
 10
4.60745
 20
-44.6429
 11
4.86824
 21
-44.4678
  0
LINE
  8
0
 10
4.86824
 20
-44.4678
 11
5.12239
 21
-44.2831
  0
LINE
  8
0
 10
5.12239
 20
-44.2831
 11
5.36954
 21
-44.0892
  0
LINE
  8
0
 10
5.36954
 20
-44.0892
 11
5.60934
 21
-43.8863
  0
LINE
  8
0
 10
5.60934
 20
-43.8863
 11
5.84151
 21
-43.6747
  0
LINE
  8
0
 10
5.84151
 20
-43.6747
 11
6.06567
 21
-43.4546
  0
LINE
  8
0
 10
6.06567
 20
-43.4546
 11
6.28157
 21
-43.2264
  0
LINE
  8
0
 10
6.28157
 20
-43.2264
 11
6.48888
 21
-42.9904
  0
LINE
  8
0
 10
6.48888
 20
-42.9904
 11
6.68732
 21
-42.7469
  0
LINE
  8
0
 10
6.68732
 20
-42.7469
 11
6.87663
 21
-42.4962
  0
LINE
  8
0
 10
6.87663
 20
-42.4962
 11
7.05655
 21
-42.2386
  0
LINE
  8
0
 10
7.05655
 20
-42.2386
 11
7.22684
 21
-41.9747
  0
LINE
  8
0
 10
7.22684
 20
-41.9747
 11
7.38725
 21
-41.7046
  0
LINE
  8
0
 10
7.38725
 20
-41.7046
 11
7.53757
 21
-41.4287
  0
LINE
  8
0
 10
7.53757
 20
-41.4287
 11
7.6776
 21
-41.1475
  0
LINE
  8
0
 10
7.6776
 20
-41.1475
 11
7.80713
 21
-40.8613
  0
LINE
  8
0
 10
7.80713
 20
-40.8613
 11
7.92601
 21
-40.5705
  0
LINE
  8
0
 10
7.92601
 20
-40.5705
 11
8.03406
 21
-40.2756
  0
LINE
  8
0
 10
8.03406
 20
-40.2756
 11
8.13113
 21
-39.9768
  0
LINE
  8
0
 10
8.13113
 20
-39.9768
 11
8.2171
 21
-39.6747
  0
LINE
  8
0
 10
8.2171
 20
-39.6747
 11
8.29184
 21
-39.3695
  0
LINE
  8
0
 10
8.29184
 20
-39.3695
 11
8.35527
 21
-39.0619
  0
LINE
  8
0
 10
8.35527
 20
-39.0619
 11
8.40727
 21
-38.7521
  0
LINE
  8
0
 10
8.40727
 20
-38.7521
 11
8.4478
 21
-38.4405
  0
LINE
  8
0
 10
8.4478
 20
-38.4405
 11
8.47678
 21
-38.1277
  0
LINE
  8
0
 10
8.47678
 20
-38.1277
 11
8.49419
 21
-37.8141
  0
LINE
  8
0
 10
8.49419
 20
-37.8141
 11
8.5
 21
-37.5
  0
LINE
  8
0
 10
8.5
 20
-37.5
 11
8.5
 21
37.5
  0
LINE
  8
0
 10
8.5
 20
37.5
 11
8.49419
 21
37.8141
  0
LINE
  8
0
 10
8.49419
 20
37.8141
 11
8.47678
 21
38.1277
  0
LINE
  8
0
 10
8.47678
 20
38.1277
 11
8.4478
 21
38.4405
  0
LINE
  8
0
 10
8.4478
 20
38.4405
 11
8.40727
 21
38.7521
  0
LINE
  8
0
 10
8.40727
 20
38.7521
 11
8.35527
 21
39.0619
  0
LINE
  8
0
 10
8.35527
 20
39.0619
 11
8.29184
 21
39.3695
  0
LINE
  8
0
 10
8.29184
 20
39.3695
 11
8.2171
 21
39.6747
  0
LINE
  8
0
 10
8.2171
 20
39.6747
 11
8.13113
 21
39.9768
  0
LINE
  8
0
 10
8.13113
 20
39.9768
 11
8.03406
 21
40.2756
  0
LINE
  8
0
 10
8.03406
 20
40.2756
 11
7.92601
 21
40.5705
  0
LINE
  8
0
 10
7.92601
 20
40.5705
 11
7.80713
 21
40.8613
  0
LINE
  8
0
 10
7.80713
 20
40.8613
 11
7.6776
 21
41.1475
  0
LINE
  8
0
 10
7.6776
 20
41.1475
 11
7.53757
 21
41.4287
  0
LINE
  8
0
 10
7.53757
 20
41.4287
 11
7.38725
 21
41.7046
  0
LINE
  8
0
 10
7.38725
 20
41.7046
 11
7.22684
 21
41.9747
  0
LINE
  8
0
 10
7.22684
 20
41.9747
 11
7.05655
 21
42.2386
  0
LINE
  8
0
 10
7.05655
 20
42.2386
 11
6.87663
 21
42.4962
  0
LINE
  8
0
 10
6.87663
 20
42.4962
 11
6.68732
 21
42.7469
  0
LINE
  8
0
 10
6.68732
 20
42.7469
 11
6.48888
 21
42.9904
  0
LINE
  8
0
 10
6.48888
 20
42.9904
 11
6.28157
 21
43.2264
  0
LINE
  8
0
 10
6.28157
 20
43.2264
 11
6.06567
 21
43.4546
  0
LINE
  8
0
 10
6.06567
 20
43.4546
 11
5.84151
 21
43.6747
  0
LINE
  8
0
 10
5.84151
 20
43.6747
 11
5.60934
 21
43.8863
  0
LINE
  8
0
 10
5.60934
 20
43.8863
 11
5.36954
 21
44.0892
  0
LINE
  8
0
 10
5.36954
 20
44.0892
 11
5.12239
 21
44.2831
  0
LINE
  8
0
 10
5.12239
 20
44.2831
 11
4.86824
 21
44.4678
  0
LINE
  8
0
 10
4.86824
 20
44.4678
 11
4.60745
 21
44.6429
  0
LINE
  8
0
 10
4.60745
 20
44.6429
 11
4.34036
 21
44.8083
  0
LINE
  8
0
 10
4.34036
 20
44.8083
 11
4.06734
 21
44.9637
  0
LINE
  8
0
 10
4.06734
 20
44.9637
 11
3.78877
 21
45.1089
  0
LINE
  8
0
 10
3.78877
 20
45.1089
 11
3.50502
 21
45.2437
  0
LINE
  8
0
 10
3.50502
 20
45.2437
 11
3.21649
 21
45.3679
  0
LINE
  8
0
 10
3.21649
 20
45.3679
 11
2.92355
 21
45.4814
  0
LINE
  8
0
 10
2.92355
 20
45.4814
 11
2.62663
 21
45.584
  0
LINE
  8
0
 10
2.62663
 20
45.584
 11
2.32613
 21
45.6755
  0
LINE
  8
0
 10
2.32613
 20
45.6755
 11
2.02245
 21
45.7559
  0
LINE
  8
0
 10
2.02245
 20
45.7559
 11
1.71599
 21
45.825
  0
LINE
  8
0
 10
1.71599
 20
45.825
 11
1.4072
 21
45.8827
  0
LINE
  8
0
 10
1.4072
 20
45.8827
 11
1.09648
 21
45.929
  0
LINE
  8
0
 10
1.09648
 20
45.929
 11
0.784271
 21
45.9637
  0
LINE
  8
0
 10
0.784271
 20
45.9637
 11
0.470993
 21
45.9869
  0
LINE
  8
0
 10
0.470993
 20
45.9869
 11
0.157059
 21
45.9985
  0
LINE
  8
0
 10
0.157059
 20
45.9985
 11
-0.157059
 21
45.9985
  0
LINE
  8
0
 10
-0.157059
 20
45.9985
 11
-0.470993
 21
45.9869
  0
LINE
  8
0
 10
-0.470993
 20
45.9869
 11
-0.784271
 21
45.9637
  0
LINE
  8
0
 10
-0.784271
 20
45.9637
 11
-1.09648
 21
45.929
  0
LINE
  8
0
 10
-1.09648
 20
45.929
 11
-1.4072
 21
45.8827
  0
LINE
  8
0
 10
-1.4072
 20
45.8827
 11
-1.71599
 21
45.825
  0
LINE
  8
0
 10
-1.71599
 20
45.825
 11
-2.02245
 21
45.7559
  0
LINE
  8
0
 10
-2.02245
 20
45.7559
 11
-2.32613
 21
45.6755
  0
LINE
  8
0
 10
-2.32613
 20
45.6755
 11
-2.62663
 21
45.584
  0
LINE
  8
0
 10
-2.62663
 20
45.584
 11
-2.92355
 21
45.4814
  0
LINE
  8
0
 10
-2.92355
 20
45.4814
 11
-3.21649
 21
45.3679
  0
LINE
  8
0
 10
-3.21649
 20
45.3679
 11
-3.50502
 21
45.2437
  0
LINE
  8
0
 10
-3.50502
 20
45.2437
 11
-3.78877
 21
45.1089
  0
LINE
  8
0
 10
-3.78877
 20
45.1089
 11
-4.06734
 21
44.9637
  0
LINE
  8
0
 10
-4.06734
 20
44.9637
 11
-4.34036
 21
44.8083
  0
LINE
  8
0
 10
-4.34036
 20
44.8083
 11
-4.60745
 21
44.6429
  0
LINE
  8
0
 10
-4.60745
 20
44.6429
 11
-4.86824
 21
44.4678
  0
LINE
  8
0
 10
-4.86824
 20
44.4678
 11
-5.12239
 21
44.2831
  0
LINE
  8
0
 10
-5.12239
 20
44.2831
 11
-5.36954
 21
44.0892
  0
LINE
  8
0
 10
-5.36954
 20
44.0892
 11
-5.60934
 21
43.8863
  0
LINE
  8
0
 10
-5.60934
 20
43.8863
 11
-5.84151
 21
43.6747
  0
LINE
  8
0
 10
-5.84151
 20
43.6747
 11
-6.06567
 21
43.4546
  0
LINE
  8
0
 10
-6.06567
 20
43.4546
 11
-6.28157
 21
43.2264
  0
LINE
  8
0
 10
-6.28157
 20
43.2264
 11
-6.48888
 21
42.9904
  0
LINE
  8
0
 10
-6.48888
 20
42.9904
 11
-6.68732
 21
42.7469
  0
LINE
  8
0
 10
-6.68732
 20
42.7469
 11
-6.87663
 21
42.4962
  0
LINE
  8
0
 10
-6.87663
 20
42.4962
 11
-7.05655
 21
42.2386
  0
LINE
  8
0
 10
-7.05655
 20
42.2386
 11
-7.22684
 21
41.9747
  0
LINE
  8
0
 10
-7.22684
 20
41.9747
 11
-7.38725
 21
41.7046
  0
LINE
  8
0
 10
-7.38725
 20
41.7046
 11
-7.53757
 21
41.4287
  0
LINE
  8
0
 10
-7.53757
 20
41.4287
 11
-7.6776
 21
41.1475
  0
LINE
  8
0
 10
-7.6776
 20
41.1475
 11
-7.80713
 21
40.8613
  0
LINE
  8
0
 10
-7.80713
 20
40.8613
 11
-7.92601
 21
40.5705
  0
LINE
  8
0
 10
-7.92601
 20
40.5705
 11
-8.03406
 21
40.2756
  0
LINE
  8
0
 10
-8.03406
 20
40.2756
 11
-8.13113
 21
39.9768
  0
LINE
  8
0
 10
-8.13113
 20
39.9768
 11
-8.2171
 21
39.6747
  0
LINE
  8
0
 10
-8.2171
 20
39.6747
 11
-8.29184
 21
39.3695
  0
LINE
  8
0
 10
-8.29184
 20
39.3695
 11
-8.35527
 21
39.0619
  0
LINE
  8
0
 10
-8.35527
 20
39.0619
 11
-8.40727
 21
38.7521
  0
LINE
  8
0
 10
-8.40727
 20
38.7521
 11
-8.4478
 21
38.4405
  0
LINE
  8
0
 10
-8.4478
 20
38.4405
 11
-8.47678
 21
38.1277
  0
LINE
  8
0
 10
-8.47678
 20
38.1277
 11
-8.49419
 21
37.8141
  0
LINE
  8
0
 10
-8.49419
 20
37.8141
 11
-8.5
 21
37.5
  0
LINE
  8
0
 10
-8.5
 20
37.5
 11
-8.5
 21
4.47534
  0
LINE
  8
0
 10
-8.5
 20
4.47534
 11
-180.47
 21
4.47534
  0
LINE
  8
0
 10
-180.47
 20
4.47534
 11
-182.25
 21
3.89711
  0
LINE
  8
0
 10
-182.25
 20
3.89711
 11
-183.641
 21
2.64502
  0
LINE
  8
0
 10
-183.641
 20
2.64502
 11
-184.402
 21
0.935593
  0
LINE
  8
0
 10
-184.402
 20
0.935593
 11
-184.402
 21
-0.935593
  0
LINE
  8
0
 10
-184.402
 20
-0.935593
 11
-183.641
 21
-2.64502
  0
LINE
  8
0
 10
-183.641
 20
-2.64502
 11
-182.25
 21
-3.89711
  0
LINE
  8
0
 10
-182.25
 20
-3.89711
 11
-180.47
 21
-4.47534
  0
LINE
  8
0
 10
-180.47
 20
-4.47534
 11
-8.5
 21
-4.47534
  0
LINE
  8
0
 10
-8.5
 20
-4.47534
 11
-8.5
 21
-37.5
  0
LINE
  8
0
 10
-8.5
 20
-37.5
 11
-8.49419
 21
-37.8141
  0
LINE
  8
0
 10
-8.49419
 20
-37.8141
 11
-8.47678
 21
-38.1277
  0
LINE
  8
0
 10
-8.47678
 20
-38.1277
 11
-8.4478
 21
-38.4405
  0
LINE
  8
0
 10
-8.4478
 20
-38.4405
 11
-8.40727
 21
-38.7521
  0
LINE
  8
0
 10
-8.40727
 20
-38.7521
 11
-8.35527
 21
-39.0619
  0
LINE
  8
0
 10
-8.35527
 20
-39.0619
 11
-8.29184
 21
-39.3695
  0
LINE
  8
0
 10
-8.29184
 20
-39.3695
 11
-8.2171
 21
-39.6747
  0
LINE
  8
0
 10
-8.2171
 20
-39.6747
 11
-8.13113
 21
-39.9768
  0
LINE
  8
0
 10
-8.13113
 20
-39.9768
 11
-8.03406
 21
-40.2756
  0
LINE
  8
0
 10
-8.03406
 20
-40.2756
 11
-7.92601
 21
-40.5705
  0
LINE
  8
0
 10
-7.92601
 20
-40.5705
 11
-7.80713
 21
-40.8613
  0
LINE
  8
0
 10
-7.80713
 20
-40.8613
 11
-7.6776
 21
-41.1475
  0
LINE
  8
0
 10
-7.6776
 20
-41.1475
 11
-7.53757
 21
-41.4287
  0
LINE
  8
0
 10
-7.53757
 20
-41.4287
 11
-7.38725
 21
-41.7046
  0
LINE
  8
0
 10
-7.38725
 20
-41.7046
 11
-7.22684
 21
-41.9747
  0
LINE
  8
0
 10
-7.22684
 20
-41.9747
 11
-7.05655
 21
-42.2386
  0
LINE
  8
0
 10
-7.05655
 20
-42.2386
 11
-6.87663
 21
-42.4962
  0
LINE
  8
0
 10
-6.87663
 20
-42.4962
 11
-6.68732
 21
-42.7469
  0
LINE
  8
0
 10
-6.68732
 20
-42.7469
 11
-6.48888
 21
-42.9904
  0
LINE
  8
0
 10
-6.48888
 20
-42.9904
 11
-6.28157
 21
-43.2264
  0
LINE
  8
0
 10
-6.28157
 20
-43.2264
 11
-6.06567
 21
-43.4546
  0
LINE
  8
0
 10
-6.06567
 20
-43.4546
 11
-5.84151
 21
-43.6747
  0
LINE
  8
0
 10
-5.84151
 20
-43.6747
 11
-5.60934
 21
-43.8863
  0
LINE
  8
0
 10
-5.60934
 20
-43.8863
 11
-5.36954
 21
-44.0892
  0
LINE
  8
0
 10
-5.36954
 20
-44.0892
 11
-5.12239
 21
-44.2831
  0
LINE
  8
0
 10
-5.12239
 20
-44.2831
 11
-4.86824
 21
-44.4678
  0
LINE
  8
0
 10
-4.86824
 20
-44.4678
 11
-4.60745
 21
-44.6429
  0
LINE
  8
0
 10
-4.60745
 20
-44.6429
 11
-4.34036
 21
-44.8083
  0
LINE
  8
0
 10
-4.34036
 20
-44.8083
 11
-4.06734
 21
-44.9637
  0
LINE
  8
0
 10
-4.06734
 20
-44.9637
 11
-3.78877
 21
-45.1089
  0
LINE
  8
0
 10
-3.78877
 20
-45.1089
 11
-3.50502
 21
-45.2437
  0
LINE
  8
0
 10
-3.50502
 20
-45.2437
 11
-3.21649
 21
-45.3679
  0
LINE
  8
0
 10
-3.21649
 20
-45.3679
 11
-2.92355
 21
-45.4814
  0
LINE
  8
0
 10
-2.92355
 20
-45.4814
 11
-2.62663
 21
-45.584
  0
LINE
  8
0
 10
-2.62663
 20
-45.584
 11
-2.32613
 21
-45.6755
  0
LINE
  8
0
 10
-2.32613
 20
-45.6755
 11
-2.02245
 21
-45.7559
  0
LINE
  8
0
 10
-2.02245
 20
-45.7559
 11
-1.71599
 21
-45.825
  0
LINE
  8
0
 10
-1.71599
 20
-45.825
 11
-1.4072
 21
-45.8827
  0
LINE
  8
0
 10
-1.4072
 20
-45.8827
 11
-1.09648
 21
-45.929
  0
LINE
  8
0
 10
-1.09648
 20
-45.929
 11
-0.784271
 21
-45.9637
  0
LINE
  8
0
 10
-0.784271
 20
-45.9637
 11
-0.470993
 21
-45.9869
  0
LINE
  8
0
 10
-0.470993
 20
-45.9869
 11
-0.157059
 21
-45.9985
  0
LINE
  8
0
 10
-0.157059
 20
-45.9985
 11
0.157059
 21
-45.9985
  0
LINE
  8
0
 10
0.157059
 20
-45.9985
 11
0.470993
 21
-45.9869
  0
LINE
  8
0
 10
-0.157013
 20
-40.9965
 11
-0.469803
 21
-40.9683
  0
LINE
  8
0
 10
-0.469803
 20
-40.9683
 11
-0.778809
 21
-40.9122
  0
LINE
  8
0
 10
-0.778809
 20
-40.9122
 11
-1.08156
 21
-40.8287
  0
LINE
  8
0
 10
-1.08156
 20
-40.8287
 11
-1.37558
 21
-40.7183
  0
LINE
  8
0
 10
-1.37558
 20
-40.7183
 11
-1.65854
 21
-40.5821
  0
LINE
  8
0
 10
-1.65854
 20
-40.5821
 11
-1.92813
 21
-40.421
  0
LINE
  8
0
 10
-1.92813
 20
-40.421
 11
-2.18221
 21
-40.2364
  0
LINE
  8
0
 10
-2.18221
 20
-40.2364
 11
-2.41872
 21
-40.0298
  0
LINE
  8
0
 10
-2.41872
 20
-40.0298
 11
-2.63574
 21
-39.8028
  0
LINE
  8
0
 10
-2.63574
 20
-39.8028
 11
-2.83156
 21
-39.5572
  0
LINE
  8
0
 10
-2.83156
 20
-39.5572
 11
-3.00456
 21
-39.2951
  0
LINE
  8
0
 10
-3.00456
 20
-39.2951
 11
-3.15338
 21
-39.0186
  0
LINE
  8
0
 10
-3.15338
 20
-39.0186
 11
-3.27681
 21
-38.7298
  0
LINE
  8
0
 10
-3.27681
 20
-38.7298
 11
-3.37386
 21
-38.4311
  0
LINE
  8
0
 10
-3.37386
 20
-38.4311
 11
-3.44374
 21
-38.1249
  0
LINE
  8
0
 10
-3.44374
 20
-38.1249
 11
-3.4859
 21
-37.8137
  0
LINE
  8
0
 10
-3.4859
 20
-37.8137
 11
-3.5
 21
-37.5
  0
LINE
  8
0
 10
-3.5
 20
-37.5
 11
-3.5
 21
37.5
  0
LINE
  8
0
 10
-3.5
 20
37.5
 11
-3.4859
 21
37.8137
  0
LINE
  8
0
 10
-3.4859
 20
37.8137
 11
-3.44374
 21
38.1249
  0
LINE
  8
0
 10
-3.44374
 20
38.1249
 11
-3.37386
 21
38.4311
  0
LINE
  8
0
 10
-3.37386
 20
38.4311
 11
-3.27681
 21
38.7298
  0
LINE
  8
0
 10
-3.27681
 20
38.7298
 11
-3.15338
 21
39.0186
  0
LINE
  8
0
 10
-3.15338
 20
39.0186
 11
-3.00456
 21
39.2951
  0
LINE
  8
0
 10
-3.00456
 20
39.2951
 11
-2.83156
 21
39.5572
  0
LINE
  8
0
 10
-2.83156
 20
39.5572
 11
-2.63574
 21
39.8028
  0
LINE
  8
0
 10
-2.63574
 20
39.8028
 11
-2.41872
 21
40.0298
  0
LINE
  8
0
 10
-2.41872
 20
40.0298
 11
-2.18221
 21
40.2364
  0
LINE
  8
0
 10
-2.18221
 20
40.2364
 11
-1.92813
 21
40.421
  0
LINE
  8
0
 10
-1.92813
 20
40.421
 11
-1.65854
 21
40.5821
  0
LINE
  8
0
 10
-1.65854
 20
40.5821
 11
-1.37558
 21
40.7183
  0
LINE
  8
0
 10
-1.37558
 20
40.7183
 11
-1.08156
 21
40.8287
  0
LINE
  8
0
 10
-1.08156
 20
40.8287
 11
-0.778809
 21
40.9122
  0
LINE
  8
0
 10
-0.778809
 20
40.9122
 11
-0.469803
 21
40.9683
  0
LINE
  8
0
 10
-0.469803
 20
40.9683
 11
-0.157013
 21
40.9965
  0
LINE
  8
0
 10
-0.157013
 20
40.9965
 11
0.157013
 21
40.9965
  0
LINE
  8
0
 10
0.157013
 20
40.9965
 11
0.469803
 21
40.9683
  0
LINE
  8
0
 10
0.469803
 20
40.9683
 11
0.778809
 21
40.9122
  0
LINE
  8
0
 10
0.778809
 20
40.9122
 11
1.08156
 21
40.8287
  0
LINE
  8
0
 10
1.08156
 20
40.8287
 11
1.37558
 21
40.7183
  0
LINE
  8
0
 10
1.37558
 20
40.7183
 11
1.65854
 21
40.5821
  0
LINE
  8
0
 10
1.65854
 20
40.5821
 11
1.92813
 21
40.421
  0
LINE
  8
0
 10
1.92813
 20
40.421
 11
2.18221
 21
40.2364
  0
LINE
  8
0
 10
2.18221
 20
40.2364
 11
2.41872
 21
40.0298
  0
LINE
  8
0
 10
2.41872
 20
40.0298
 11
2.63574
 21
39.8028
  0
LINE
  8
0
 10
2.63574
 20
39.8028
 11
2.83156
 21
39.5572
  0
LINE
  8
0
 10
2.83156
 20
39.5572
 11
3.00456
 21
39.2951
  0
LINE
  8
0
 10
3.00456
 20
39.2951
 11
3.15338
 21
39.0186
  0
LINE
  8
0
 10
3.15338
 20
39.0186
 11
3.27681
 21
38.7298
  0
LINE
  8
0
 10
3.27681
 20
38.7298
 11
3.37386
 21
38.4311
  0
LINE
  8
0
 10
3.37386
 20
38.4311
 11
3.44374
 21
38.1249
  0
LINE
  8
0
 10
3.44374
 20
38.1249
 11
3.4859
 21
37.8137
  0
LINE
  8
0
 10
3.4859
 20
37.8137
 11
3.5
 21
37.5
  0
LINE
  8
0
 10
3.5
 20
37.5
 11
3.5
 21
-37.5
  0
LINE
  8
0
 10
3.5
 20
-37.5
 11
3.4859
 21
-37.8137
  0
LINE
  8
0
 10
3.4859
 20
-37.8137
 11
3.44374
 21
-38.1249
  0
LINE
  8
0
 10
3.44374
 20
-38.1249
 11
3.37386
 21
-38.4311
  0
LINE
  8
0
 10
3.37386
 20
-38.4311
 11
3.27681
 21
-38.7298
  0
LINE
  8
0
 10
3.27681
 20
-38.7298
 11
3.15338
 21
-39.0186
  0
LINE
  8
0
 10
3.15338
 20
-39.0186
 11
3.00456
 21
-39.2951
  0
LINE
  8
0
 10
3.00456
 20
-39.2951
 11
2.83156
 21
-39.5572
  0
LINE
  8
0
 10
2.83156
 20
-39.5572
 11
2.63574
 21
-39.8028
  0
LINE
  8
0
 10
2.63574
 20
-39.8028
 11
2.41872
 21
-40.0298
  0
LINE
  8
0
 10
2.41872
 20
-40.0298
 11
2.18221
 21
-40.2364
  0
LINE
  8
0
 10
2.18221
 20
-40.2364
 11
1.92813
 21
-40.421
  0
LINE
  8
0
 10
1.92813
 20
-40.421
 11
1.65854
 21
-40.5821
  0
LINE
  8
0
 10
1.65854
 20
-40.5821
 11
1.37558
 21
-40.7183
  0
LINE
  8
0
 10
1.37558
 20
-40.7183
 11
1.08156
 21
-40.8287
  0
LINE
  8
0
 10
1.08156
 20
-40.8287
 11
0.778809
 21
-40.9122
  0
LINE
  8
0
 10
0.778809
 20
-40.9122
 11
0.469803
 21
-40.9683
  0
LINE
  8
0
 10
0.469803
 20
-40.9683
 11
0.157013
 21
-40.9965
  0
LINE
  8
0
 10
0.157013
 20
-40.9965
 11
-0.157013
 21
-40.9965
  0
LINE
  8
0
 10
-170
 20
-1.59999
 11
-170.157
 21
-1.59229
  0
LINE
  8
0
 10
-170.157
 20
-1.59229
 11
-170.312
 21
-1.56924
  0
LINE
  8
0
 10
-170.312
 20
-1.56924
 11
-170.464
 21
-1.5311
  0
LINE
  8
0
 10
-170.464
 20
-1.5311
 11
-170.612
 21
-1.4782
  0
LINE
  8
0
 10
-170.612
 20
-1.4782
 11
-170.754
 21
-1.41107
  0
LINE
  8
0
 10
-170.754
 20
-1.41107
 11
-170.889
 21
-1.33034
  0
LINE
  8
0
 10
-170.889
 20
-1.33034
 11
-171.015
 21
-1.23682
  0
LINE
  8
0
 10
-171.015
 20
-1.23682
 11
-171.131
 21
-1.13136
  0
LINE
  8
0
 10
-171.131
 20
-1.13136
 11
-171.237
 21
-1.01501
  0
LINE
  8
0
 10
-171.237
 20
-1.01501
 11
-171.33
 21
-0.888901
  0
LINE
  8
0
 10
-171.33
 20
-0.888901
 11
-171.411
 21
-0.754227
  0
LINE
  8
0
 10
-171.411
 20
-0.754227
 11
-171.478
 21
-0.612289
  0
LINE
  8
0
 10
-171.478
 20
-0.612289
 11
-171.531
 21
-0.464447
  0
LINE
  8
0
 10
-171.531
 20
-0.464447
 11
-171.569
 21
-0.312134
  0
LINE
  8
0
 10
-171.569
 20
-0.312134
 11
-171.592
 21
-0.156815
  0
LINE
  8
0
 10
-171.592
 20
-0.156815
 11
-171.6
 21
0
  0
LINE
  8
0
 10
-171.6
 20
0
 11
-171.592
 21
0.156815
  0
LINE
  8
0
 10
-171.592
 20
0.156815
 11
-171.569
 21
0.312134
  0
LINE
  8
0
 10
-171.569
 20
0.312134
 11
-171.531
 21
0.464447
  0
LINE
  8
0
 10
-171.531
 20
0.464447
 11
-171.478
 21
0.612289
  0
LINE
  8
0
 10
-171.478
 20
0.612289
 11
-171.411
 21
0.754227
  0
LINE
  8
0
 10
-171.411
 20
0.754227
 11
-171.33
 21
0.888901
  0
LINE
  8
0
 10
-171.33
 20
0.888901
 11
-171.237
 21
1.01501
  0
LINE
  8
0
 10
-171.237
 20
1.01501
 11
-171.131
 21
1.13136
  0
LINE
  8
0
 10
-171.131
 20
1.13136
 11
-171.015
 21
1.23682
  0
LINE
  8
0
 10
-171.015
 20
1.23682
 11
-170.889
 21
1.33034
  0
LINE
  8
0
 10
-170.889
 20
1.33034
 11
-170.754
 21
1.41107
  0
LINE
  8
0
 10
-170.754
 20
1.41107
 11
-170.612
 21
1.4782
  0
LINE
  8
0
 10
-170.612
 20
1.4782
 11
-170.464
 21
1.5311
  0
LINE
  8
0
 10
-170.464
 20
1.5311
 11
-170.312
 21
1.56924
  0
LINE
  8
0
 10
-170.312
 20
1.56924
 11
-170.157
 21
1.59229
  0
LINE
  8
0
 10
-170.157
 20
1.59229
 11
-170
 21
1.59999
  0
LINE
  8
0
 10
-170
 20
1.59999
 11
-90
 21
1.59999
  0
LINE
  8
0
 10
-90
 20
1.59999
 11
-89.8432
 21
1.59229
  0
LINE
  8
0
 10
-89.8432
 20
1.59229
 11
-89.6879
 21
1.56924
  0
LINE
  8
0
 10
-89.6879
 20
1.56924
 11
-89.5355
 21
1.5311
  0
LINE
  8
0
 10
-89.5355
 20
1.5311
 11
-89.3877
 21
1.4782
  0
LINE
  8
0
 10
-89.3877
 20
1.4782
 11
-89.2458
 21
1.41107
  0
LINE
  8
0
 10
-89.2458
 20
1.41107
 11
-89.1111
 21
1.33034
  0
LINE
  8
0
 10
-89.1111
 20
1.33034
 11
-88.985
 21
1.23682
  0
LINE
  8
0
 10
-88.985
 20
1.23682
 11
-88.8686
 21
1.13136
  0
LINE
  8
0
 10
-88.8686
 20
1.13136
 11
-88.7632
 21
1.01501
  0
LINE
  8
0
 10
-88.7632
 20
1.01501
 11
-88.6696
 21
0.888901
  0
LINE
  8
0
 10
-88.6696
 20
0.888901
 11
-88.5889
 21
0.754227
  0
LINE
  8
0
 10
-88.5889
 20
0.754227
 11
-88.5218
 21
0.612289
  0
LINE
  8
0
 10
-88.5218
 20
0.612289
 11
-88.4689
 21
0.464447
  0
LINE
  8
0
 10
-88.4689
 20
0.464447
 11
-88.4307
 21
0.312134
  0
LINE
  8
0
 10
-88.4307
 20
0.312134
 11
-88.4077
 21
0.156815
  0
LINE
  8
0
 10
-88.4077
 20
0.156815
 11
-88.4
 21
0
  0
LINE
  8
0
 10
-88.4
 20
0
 11
-88.4077
 21
-0.156815
  0
LINE
  8
0
 10
-88.4077
 20
-0.156815
 11
-88.4307
 21
-0.312134
  0
LINE
  8
0
 10
-88.4307
 20
-0.312134
 11
-88.4689
 21
-0.464447
  0
LINE
  8
0
 10
-88.4689
 20
-0.464447
 11
-88.5218
 21
-0.612289
  0
LINE
  8
0
 10
-88.5218
 20
-0.612289
 11
-88.5889
 21
-0.754227
  0
LINE
  8
0
 10
-88.5889
 20
-0.754227
 11
-88.6696
 21
-0.888901
  0
LINE
  8
0
 10
-88.6696
 20
-0.888901
 11
-88.7632
 21
-1.01501
  0
LINE
  8
0
 10
-88.7632
 20
-1.01501
 11
-88.8686
 21
-1.13136
  0
LINE
  8
0
 10
-88.8686
 20
-1.13136
 11
-88.985
 21
-1.23682
  0
LINE
  8
0
 10
-88.985
 20
-1.23682
 11
-89.1111
 21
-1.33034
  0
LINE
  8
0
 10
-89.1111
 20
-1.33034
 11
-89.2458
 21
-1.41107
  0
LINE
  8
0
 10
-89.2458
 20
-1.41107
 11
-89.3877
 21
-1.4782
  0
LINE
  8
0
 10
-89.3877
 20
-1.4782
 11
-89.5355
 21
-1.5311
  0
LINE
  8
0
 10
-89.5355
 20
-1.5311
 11
-89.6879
 21
-1.56924
  0
LINE
  8
0
 10
-89.6879
 20
-1.56924
 11
-89.8432
 21
-1.59229
  0
LINE
  8
0
 10
-89.8432
 20
-1.59229
 11
-90
 21
-1.59999
  0
LINE
  8
0
 10
-90
 20
-1.59999
 11
-170
 21
-1.59999
  0
ENDSEC
  0
SECTION
  2
OBJECTS
  0
DICTIONARY
  0
ENDSEC
  0
EOF
