  0
SECTION
  2
BLOCKS
  0
ENDSEC
  0
SECTION
  2
ENTITIES
  0
LINE
  8
0
 10
1.25146
 20
-7.9015
 11
2.47212
 21
-7.60844
  0
LINE
  8
0
 10
2.47212
 20
-7.60844
 11
3.63191
 21
-7.12805
  0
LINE
  8
0
 10
3.63191
 20
-7.12805
 11
4.70227
 21
-6.47212
  0
LINE
  8
0
 10
4.70227
 20
-6.47212
 11
5.65685
 21
-5.65685
  0
LINE
  8
0
 10
5.65685
 20
-5.65685
 11
6.47212
 21
-4.70227
  0
LINE
  8
0
 10
6.47212
 20
-4.70227
 11
7.12805
 21
-3.63191
  0
LINE
  8
0
 10
7.12805
 20
-3.63191
 11
7.60844
 21
-2.47212
  0
LINE
  8
0
 10
7.60844
 20
-2.47212
 11
7.9015
 21
-1.25146
  0
LINE
  8
0
 10
7.9015
 20
-1.25146
 11
8
 21
0
  0
LINE
  8
0
 10
8
 20
0
 11
8
 21
8
  0
LINE
  8
0
 10
8
 20
8
 11
5.59999
 21
8
  0
LINE
  8
0
 10
5.59999
 20
8
 11
5.59999
 21
5
  0
LINE
  8
0
 10
5.59999
 20
5
 11
6.59999
 21
5
  0
LINE
  8
0
 10
6.59999
 20
5
 11
6.59999
 21
2.5
  0
LINE
  8
0
 10
6.59999
 20
2.5
 11
1.40001
 21
2.5
  0
LINE
  8
0
 10
1.40001
 20
2.5
 11
1.40001
 21
5
  0
LINE
  8
0
 10
1.40001
 20
5
 11
2.40001
 21
5
  0
LINE
  8
0
 10
2.40001
 20
5
 11
2.40001
 21
8
  0
LINE
  8
0
 10
2.40001
 20
8
 11
-2.40001
 21
8
  0
LINE
  8
0
 10
-2.40001
 20
8
 11
-2.40001
 21
5
  0
LINE
  8
0
 10
-2.40001
 20
5
 11
-1.40001
 21
5
  0
LINE
  8
0
 10
-1.40001
 20
5
 11
-1.40001
 21
2.5
  0
LINE
  8
0
 10
-1.40001
 20
2.5
 11
-6.59999
 21
2.5
  0
LINE
  8
0
 10
-6.59999
 20
2.5
 11
-6.59999
 21
5
  0
LINE
  8
0
 10
-6.59999
 20
5
 11
-5.59999
 21
5
  0
LINE
  8
0
 10
-5.59999
 20
5
 11
-5.59999
 21
8
  0
LINE
  8
0
 10
-5.59999
 20
8
 11
-8
 21
8
  0
LINE
  8
0
 10
-8
 20
8
 11
-8
 21
0
  0
LINE
  8
0
 10
-8
 20
0
 11
-7.9015
 21
-1.25146
  0
LINE
  8
0
 10
-7.9015
 20
-1.25146
 11
-7.60844
 21
-2.47212
  0
LINE
  8
0
 10
-7.60844
 20
-2.47212
 11
-7.12805
 21
-3.63191
  0
LINE
  8
0
 10
-7.12805
 20
-3.63191
 11
-6.47212
 21
-4.70227
  0
LINE
  8
0
 10
-6.47212
 20
-4.70227
 11
-5.65685
 21
-5.65685
  0
LINE
  8
0
 10
-5.65685
 20
-5.65685
 11
-4.70227
 21
-6.47212
  0
LINE
  8
0
 10
-4.70227
 20
-6.47212
 11
-3.63191
 21
-7.12805
  0
LINE
  8
0
 10
-3.63191
 20
-7.12805
 11
-2.47212
 21
-7.60844
  0
LINE
  8
0
 10
-2.47212
 20
-7.60844
 11
-1.25146
 21
-7.9015
  0
LINE
  8
0
 10
-1.25146
 20
-7.9015
 11
0
 21
-8
  0
LINE
  8
0
 10
0
 20
-8
 11
1.25146
 21
-7.9015
  0
LINE
  8
0
 10
-0.156815
 20
-4.79228
 11
-0.312134
 21
-4.76924
  0
LINE
  8
0
 10
-0.312134
 20
-4.76924
 11
-0.464447
 21
-4.73109
  0
LINE
  8
0
 10
-0.464447
 20
-4.73109
 11
-0.612289
 21
-4.67819
  0
LINE
  8
0
 10
-0.612289
 20
-4.67819
 11
-0.754227
 21
-4.61107
  0
LINE
  8
0
 10
-0.754227
 20
-4.61107
 11
-0.888901
 21
-4.53035
  0
LINE
  8
0
 10
-0.888901
 20
-4.53035
 11
-1.01501
 21
-4.43681
  0
LINE
  8
0
 10
-1.01501
 20
-4.43681
 11
-1.13136
 21
-4.33136
  0
LINE
  8
0
 10
-1.13136
 20
-4.33136
 11
-1.23682
 21
-4.21503
  0
LINE
  8
0
 10
-1.23682
 20
-4.21503
 11
-1.33034
 21
-4.0889
  0
LINE
  8
0
 10
-1.33034
 20
-4.0889
 11
-1.41107
 21
-3.95422
  0
LINE
  8
0
 10
-1.41107
 20
-3.95422
 11
-1.4782
 21
-3.81229
  0
LINE
  8
0
 10
-1.4782
 20
-3.81229
 11
-1.5311
 21
-3.66444
  0
LINE
  8
0
 10
-1.5311
 20
-3.66444
 11
-1.56924
 21
-3.51213
  0
LINE
  8
0
 10
-1.56924
 20
-3.51213
 11
-1.59229
 21
-3.35683
  0
LINE
  8
0
 10
-1.59229
 20
-3.35683
 11
-1.59999
 21
-3.2
  0
LINE
  8
0
 10
-1.59999
 20
-3.2
 11
-1.59229
 21
-3.04317
  0
LINE
  8
0
 10
-1.59229
 20
-3.04317
 11
-1.56924
 21
-2.88785
  0
LINE
  8
0
 10
-1.56924
 20
-2.88785
 11
-1.5311
 21
-2.73553
  0
LINE
  8
0
 10
-1.5311
 20
-2.73553
 11
-1.4782
 21
-2.58769
  0
LINE
  8
0
 10
-1.4782
 20
-2.58769
 11
-1.41107
 21
-2.44576
  0
LINE
  8
0
 10
-1.41107
 20
-2.44576
 11
-1.33034
 21
-2.31108
  0
LINE
  8
0
 10
-1.33034
 20
-2.31108
 11
-1.23682
 21
-2.18497
  0
LINE
  8
0
 10
-1.23682
 20
-2.18497
 11
-1.13136
 21
-2.06862
  0
LINE
  8
0
 10
-1.13136
 20
-2.06862
 11
-1.01501
 21
-1.96318
  0
LINE
  8
0
 10
-1.01501
 20
-1.96318
 11
-0.888901
 21
-1.86964
  0
LINE
  8
0
 10
-0.888901
 20
-1.86964
 11
-0.754227
 21
-1.78893
  0
LINE
  8
0
 10
-0.754227
 20
-1.78893
 11
-0.612289
 21
-1.72179
  0
LINE
  8
0
 10
-0.612289
 20
-1.72179
 11
-0.464447
 21
-1.66888
  0
LINE
  8
0
 10
-0.464447
 20
-1.66888
 11
-0.312134
 21
-1.63074
  0
LINE
  8
0
 10
-0.312134
 20
-1.63074
 11
-0.156815
 21
-1.6077
  0
LINE
  8
0
 10
-0.156815
 20
-1.6077
 11
0
 21
-1.59999
  0
LINE
  8
0
 10
0
 20
-1.59999
 11
0.156815
 21
-1.6077
  0
LINE
  8
0
 10
0.156815
 20
-1.6077
 11
0.312134
 21
-1.63074
  0
LINE
  8
0
 10
0.312134
 20
-1.63074
 11
0.464447
 21
-1.66888
  0
LINE
  8
0
 10
0.464447
 20
-1.66888
 11
0.612289
 21
-1.72179
  0
LINE
  8
0
 10
0.612289
 20
-1.72179
 11
0.754227
 21
-1.78893
  0
LINE
  8
0
 10
0.754227
 20
-1.78893
 11
0.888901
 21
-1.86964
  0
LINE
  8
0
 10
0.888901
 20
-1.86964
 11
1.01501
 21
-1.96318
  0
LINE
  8
0
 10
1.01501
 20
-1.96318
 11
1.13136
 21
-2.06862
  0
LINE
  8
0
 10
1.13136
 20
-2.06862
 11
1.23682
 21
-2.18497
  0
LINE
  8
0
 10
1.23682
 20
-2.18497
 11
1.33034
 21
-2.31108
  0
LINE
  8
0
 10
1.33034
 20
-2.31108
 11
1.41107
 21
-2.44576
  0
LINE
  8
0
 10
1.41107
 20
-2.44576
 11
1.4782
 21
-2.58769
  0
LINE
  8
0
 10
1.4782
 20
-2.58769
 11
1.5311
 21
-2.73553
  0
LINE
  8
0
 10
1.5311
 20
-2.73553
 11
1.56924
 21
-2.88785
  0
LINE
  8
0
 10
1.56924
 20
-2.88785
 11
1.59229
 21
-3.04317
  0
LINE
  8
0
 10
1.59229
 20
-3.04317
 11
1.59999
 21
-3.2
  0
LINE
  8
0
 10
1.59999
 20
-3.2
 11
1.59229
 21
-3.35683
  0
LINE
  8
0
 10
1.59229
 20
-3.35683
 11
1.56924
 21
-3.51213
  0
LINE
  8
0
 10
1.56924
 20
-3.51213
 11
1.5311
 21
-3.66444
  0
LINE
  8
0
 10
1.5311
 20
-3.66444
 11
1.4782
 21
-3.81229
  0
LINE
  8
0
 10
1.4782
 20
-3.81229
 11
1.41107
 21
-3.95422
  0
LINE
  8
0
 10
1.41107
 20
-3.95422
 11
1.33034
 21
-4.0889
  0
LINE
  8
0
 10
1.33034
 20
-4.0889
 11
1.23682
 21
-4.21503
  0
LINE
  8
0
 10
1.23682
 20
-4.21503
 11
1.13136
 21
-4.33136
  0
LINE
  8
0
 10
1.13136
 20
-4.33136
 11
1.01501
 21
-4.43681
  0
LINE
  8
0
 10
1.01501
 20
-4.43681
 11
0.888901
 21
-4.53035
  0
LINE
  8
0
 10
0.888901
 20
-4.53035
 11
0.754227
 21
-4.61107
  0
LINE
  8
0
 10
0.754227
 20
-4.61107
 11
0.612289
 21
-4.67819
  0
LINE
  8
0
 10
0.612289
 20
-4.67819
 11
0.464447
 21
-4.73109
  0
LINE
  8
0
 10
0.464447
 20
-4.73109
 11
0.312134
 21
-4.76924
  0
LINE
  8
0
 10
0.312134
 20
-4.76924
 11
0.156815
 21
-4.79228
  0
LINE
  8
0
 10
0.156815
 20
-4.79228
 11
0
 21
-4.79999
  0
LINE
  8
0
 10
0
 20
-4.79999
 11
-0.156815
 21
-4.79228
  0
ENDSEC
  0
SECTION
  2
OBJECTS
  0
DICTIONARY
  0
ENDSEC
  0
EOF
