  0
SECTION
  2
BLOCKS
  0
ENDSEC
  0
SECTION
  2
ENTITIES
  0
LINE
  8
0
 10
1.56433
 20
-9.87688
 11
3.09016
 21
-9.51056
  0
LINE
  8
0
 10
3.09016
 20
-9.51056
 11
4.5399
 21
-8.91006
  0
LINE
  8
0
 10
4.5399
 20
-8.91006
 11
5.87784
 21
-8.09016
  0
LINE
  8
0
 10
5.87784
 20
-8.09016
 11
7.07106
 21
-7.07106
  0
LINE
  8
0
 10
7.07106
 20
-7.07106
 11
8.09016
 21
-5.87784
  0
LINE
  8
0
 10
8.09016
 20
-5.87784
 11
8.91006
 21
-4.5399
  0
LINE
  8
0
 10
8.91006
 20
-4.5399
 11
9.51056
 21
-3.09016
  0
LINE
  8
0
 10
9.51056
 20
-3.09016
 11
9.87688
 21
-1.56433
  0
LINE
  8
0
 10
9.87688
 20
-1.56433
 11
10
 21
0
  0
LINE
  8
0
 10
10
 20
0
 11
10
 21
10
  0
LINE
  8
0
 10
10
 20
10
 11
5.59999
 21
10
  0
LINE
  8
0
 10
5.59999
 20
10
 11
5.59999
 21
7
  0
LINE
  8
0
 10
5.59999
 20
7
 11
6.59999
 21
7
  0
LINE
  8
0
 10
6.59999
 20
7
 11
6.59999
 21
4.5
  0
LINE
  8
0
 10
6.59999
 20
4.5
 11
5.59999
 21
4.5
  0
LINE
  8
0
 10
5.59999
 20
4.5
 11
5.59999
 21
1.25
  0
LINE
  8
0
 10
5.59999
 20
1.25
 11
2.40001
 21
1.25
  0
LINE
  8
0
 10
2.40001
 20
1.25
 11
2.40001
 21
4.5
  0
LINE
  8
0
 10
2.40001
 20
4.5
 11
1.40001
 21
4.5
  0
LINE
  8
0
 10
1.40001
 20
4.5
 11
1.40001
 21
7
  0
LINE
  8
0
 10
1.40001
 20
7
 11
2.40001
 21
7
  0
LINE
  8
0
 10
2.40001
 20
7
 11
2.40001
 21
10
  0
LINE
  8
0
 10
2.40001
 20
10
 11
-2.40001
 21
10
  0
LINE
  8
0
 10
-2.40001
 20
10
 11
-2.40001
 21
7
  0
LINE
  8
0
 10
-2.40001
 20
7
 11
-1.40001
 21
7
  0
LINE
  8
0
 10
-1.40001
 20
7
 11
-1.40001
 21
4.5
  0
LINE
  8
0
 10
-1.40001
 20
4.5
 11
-2.40001
 21
4.5
  0
LINE
  8
0
 10
-2.40001
 20
4.5
 11
-2.40001
 21
1.25
  0
LINE
  8
0
 10
-2.40001
 20
1.25
 11
-5.59999
 21
1.25
  0
LINE
  8
0
 10
-5.59999
 20
1.25
 11
-5.59999
 21
4.5
  0
LINE
  8
0
 10
-5.59999
 20
4.5
 11
-6.59999
 21
4.5
  0
LINE
  8
0
 10
-6.59999
 20
4.5
 11
-6.59999
 21
7
  0
LINE
  8
0
 10
-6.59999
 20
7
 11
-5.59999
 21
7
  0
LINE
  8
0
 10
-5.59999
 20
7
 11
-5.59999
 21
10
  0
LINE
  8
0
 10
-5.59999
 20
10
 11
-10
 21
10
  0
LINE
  8
0
 10
-10
 20
10
 11
-10
 21
0
  0
LINE
  8
0
 10
-10
 20
0
 11
-9.87688
 21
-1.56433
  0
LINE
  8
0
 10
-9.87688
 20
-1.56433
 11
-9.51056
 21
-3.09016
  0
LINE
  8
0
 10
-9.51056
 20
-3.09016
 11
-8.91006
 21
-4.5399
  0
LINE
  8
0
 10
-8.91006
 20
-4.5399
 11
-8.09016
 21
-5.87784
  0
LINE
  8
0
 10
-8.09016
 20
-5.87784
 11
-7.07106
 21
-7.07106
  0
LINE
  8
0
 10
-7.07106
 20
-7.07106
 11
-5.87784
 21
-8.09016
  0
LINE
  8
0
 10
-5.87784
 20
-8.09016
 11
-4.5399
 21
-8.91006
  0
LINE
  8
0
 10
-4.5399
 20
-8.91006
 11
-3.09016
 21
-9.51056
  0
LINE
  8
0
 10
-3.09016
 20
-9.51056
 11
-1.56433
 21
-9.87688
  0
LINE
  8
0
 10
-1.56433
 20
-9.87688
 11
0
 21
-10
  0
LINE
  8
0
 10
0
 20
-10
 11
1.56433
 21
-9.87688
  0
LINE
  8
0
 10
-0.156815
 20
-5.59229
 11
-0.312134
 21
-5.56924
  0
LINE
  8
0
 10
-0.312134
 20
-5.56924
 11
-0.464447
 21
-5.5311
  0
LINE
  8
0
 10
-0.464447
 20
-5.5311
 11
-0.612289
 21
-5.4782
  0
LINE
  8
0
 10
-0.612289
 20
-5.4782
 11
-0.754227
 21
-5.41107
  0
LINE
  8
0
 10
-0.754227
 20
-5.41107
 11
-0.888901
 21
-5.33034
  0
LINE
  8
0
 10
-0.888901
 20
-5.33034
 11
-1.01501
 21
-5.23682
  0
LINE
  8
0
 10
-1.01501
 20
-5.23682
 11
-1.13136
 21
-5.13136
  0
LINE
  8
0
 10
-1.13136
 20
-5.13136
 11
-1.23682
 21
-5.01501
  0
LINE
  8
0
 10
-1.23682
 20
-5.01501
 11
-1.33034
 21
-4.8889
  0
LINE
  8
0
 10
-1.33034
 20
-4.8889
 11
-1.41107
 21
-4.75423
  0
LINE
  8
0
 10
-1.41107
 20
-4.75423
 11
-1.4782
 21
-4.61229
  0
LINE
  8
0
 10
-1.4782
 20
-4.61229
 11
-1.5311
 21
-4.46445
  0
LINE
  8
0
 10
-1.5311
 20
-4.46445
 11
-1.56924
 21
-4.31213
  0
LINE
  8
0
 10
-1.56924
 20
-4.31213
 11
-1.59229
 21
-4.15681
  0
LINE
  8
0
 10
-1.59229
 20
-4.15681
 11
-1.59999
 21
-4
  0
LINE
  8
0
 10
-1.59999
 20
-4
 11
-1.59229
 21
-3.84317
  0
LINE
  8
0
 10
-1.59229
 20
-3.84317
 11
-1.56924
 21
-3.68785
  0
LINE
  8
0
 10
-1.56924
 20
-3.68785
 11
-1.5311
 21
-3.53554
  0
LINE
  8
0
 10
-1.5311
 20
-3.53554
 11
-1.4782
 21
-3.3877
  0
LINE
  8
0
 10
-1.4782
 20
-3.3877
 11
-1.41107
 21
-3.24576
  0
LINE
  8
0
 10
-1.41107
 20
-3.24576
 11
-1.33034
 21
-3.11108
  0
LINE
  8
0
 10
-1.33034
 20
-3.11108
 11
-1.23682
 21
-2.98497
  0
LINE
  8
0
 10
-1.23682
 20
-2.98497
 11
-1.13136
 21
-2.86862
  0
LINE
  8
0
 10
-1.13136
 20
-2.86862
 11
-1.01501
 21
-2.76317
  0
LINE
  8
0
 10
-1.01501
 20
-2.76317
 11
-0.888901
 21
-2.66965
  0
LINE
  8
0
 10
-0.888901
 20
-2.66965
 11
-0.754227
 21
-2.58891
  0
LINE
  8
0
 10
-0.754227
 20
-2.58891
 11
-0.612289
 21
-2.52179
  0
LINE
  8
0
 10
-0.612289
 20
-2.52179
 11
-0.464447
 21
-2.46889
  0
LINE
  8
0
 10
-0.464447
 20
-2.46889
 11
-0.312134
 21
-2.43074
  0
LINE
  8
0
 10
-0.312134
 20
-2.43074
 11
-0.156815
 21
-2.4077
  0
LINE
  8
0
 10
-0.156815
 20
-2.4077
 11
0
 21
-2.39999
  0
LINE
  8
0
 10
0
 20
-2.39999
 11
0.156815
 21
-2.4077
  0
LINE
  8
0
 10
0.156815
 20
-2.4077
 11
0.312134
 21
-2.43074
  0
LINE
  8
0
 10
0.312134
 20
-2.43074
 11
0.464447
 21
-2.46889
  0
LINE
  8
0
 10
0.464447
 20
-2.46889
 11
0.612289
 21
-2.52179
  0
LINE
  8
0
 10
0.612289
 20
-2.52179
 11
0.754227
 21
-2.58891
  0
LINE
  8
0
 10
0.754227
 20
-2.58891
 11
0.888901
 21
-2.66965
  0
LINE
  8
0
 10
0.888901
 20
-2.66965
 11
1.01501
 21
-2.76317
  0
LINE
  8
0
 10
1.01501
 20
-2.76317
 11
1.13136
 21
-2.86862
  0
LINE
  8
0
 10
1.13136
 20
-2.86862
 11
1.23682
 21
-2.98497
  0
LINE
  8
0
 10
1.23682
 20
-2.98497
 11
1.33034
 21
-3.11108
  0
LINE
  8
0
 10
1.33034
 20
-3.11108
 11
1.41107
 21
-3.24576
  0
LINE
  8
0
 10
1.41107
 20
-3.24576
 11
1.4782
 21
-3.3877
  0
LINE
  8
0
 10
1.4782
 20
-3.3877
 11
1.5311
 21
-3.53554
  0
LINE
  8
0
 10
1.5311
 20
-3.53554
 11
1.56924
 21
-3.68785
  0
LINE
  8
0
 10
1.56924
 20
-3.68785
 11
1.59229
 21
-3.84317
  0
LINE
  8
0
 10
1.59229
 20
-3.84317
 11
1.59999
 21
-4
  0
LINE
  8
0
 10
1.59999
 20
-4
 11
1.59229
 21
-4.15681
  0
LINE
  8
0
 10
1.59229
 20
-4.15681
 11
1.56924
 21
-4.31213
  0
LINE
  8
0
 10
1.56924
 20
-4.31213
 11
1.5311
 21
-4.46445
  0
LINE
  8
0
 10
1.5311
 20
-4.46445
 11
1.4782
 21
-4.61229
  0
LINE
  8
0
 10
1.4782
 20
-4.61229
 11
1.41107
 21
-4.75423
  0
LINE
  8
0
 10
1.41107
 20
-4.75423
 11
1.33034
 21
-4.8889
  0
LINE
  8
0
 10
1.33034
 20
-4.8889
 11
1.23682
 21
-5.01501
  0
LINE
  8
0
 10
1.23682
 20
-5.01501
 11
1.13136
 21
-5.13136
  0
LINE
  8
0
 10
1.13136
 20
-5.13136
 11
1.01501
 21
-5.23682
  0
LINE
  8
0
 10
1.01501
 20
-5.23682
 11
0.888901
 21
-5.33034
  0
LINE
  8
0
 10
0.888901
 20
-5.33034
 11
0.754227
 21
-5.41107
  0
LINE
  8
0
 10
0.754227
 20
-5.41107
 11
0.612289
 21
-5.4782
  0
LINE
  8
0
 10
0.612289
 20
-5.4782
 11
0.464447
 21
-5.5311
  0
LINE
  8
0
 10
0.464447
 20
-5.5311
 11
0.312134
 21
-5.56924
  0
LINE
  8
0
 10
0.312134
 20
-5.56924
 11
0.156815
 21
-5.59229
  0
LINE
  8
0
 10
0.156815
 20
-5.59229
 11
0
 21
-5.59999
  0
LINE
  8
0
 10
0
 20
-5.59999
 11
-0.156815
 21
-5.59229
  0
ENDSEC
  0
SECTION
  2
OBJECTS
  0
DICTIONARY
  0
ENDSEC
  0
EOF
